# Blender 3.5.1
# www.blender.org
mtllib axe.mtl
o Axe
v -2.656418 329.489685 -3.854164
v -2.656418 324.303345 -3.627743
v -6.243492 329.342316 -7.232887
v 6.242771 291.477142 -5.310036
v 6.242982 64.017479 -2.303509
v -9.548946 323.518433 -21.604202
v -6.243355 324.155792 -7.006554
v -6.243450 323.443176 -23.329441
v -2.656384 323.295624 -26.708256
v 6.242790 323.443176 -23.329449
v 6.242767 324.155884 -7.006420
v -2.656384 328.481964 -26.934689
v 2.655853 328.481964 -26.934704
v -0.000389 312.001648 61.382927
v -0.000336 296.947815 63.362724
v 9.548458 290.828064 -20.176983
v 9.548382 323.518555 -21.604229
v 4.749798 322.897858 -35.821533
v 7.505760 324.420807 -0.938984
v -0.000328 326.990234 57.913124
v -0.000298 281.778687 62.702438
v -7.506378 324.420776 -0.939018
v -9.548870 290.828064 -20.176998
v -4.750473 322.897736 -35.821533
v -4.750397 291.823456 -34.464878
v -7.584339 -0.597675 -13.691592
v -6.243241 64.017494 -2.303479
v -6.243328 291.477112 -5.310146
v -7.584345 0.597634 13.686994
v -0.000097 -0.733288 -16.796608
v -6.243237 63.250862 -19.863014
v -0.000206 219.219421 -17.531666
v -6.243385 219.354996 -14.426727
v -0.000313 290.605194 -25.280899
v -6.243343 290.740753 -22.176060
v 6.242897 290.740753 -22.176067
v 6.242855 219.354996 -14.426739
v -0.000074 63.115276 -22.967970
v 6.242987 63.250851 -19.863041
v 7.584144 -0.597701 -13.691649
v -0.000217 291.612885 -2.200500
v 6.242832 220.011093 0.599445
v -0.000278 220.146881 3.709126
v -6.243408 220.011108 0.599457
v -0.000146 64.153267 0.806153
v 7.584171 0.597623 13.686967
v -0.000071 0.733418 16.796659
v 6.242767 329.342224 -7.232849
v 2.655857 323.295624 -26.708275
v 6.242790 328.629608 -23.555923
v -6.243454 328.629608 -23.555916
v 2.655815 324.303345 -3.627750
v 2.655815 329.489685 -3.854176
v 4.749870 291.823486 -34.464848
v -7.506306 291.730316 0.488216
v 7.505821 291.730316 0.488251
v -0.000343 266.544678 60.552383
vn 0.3685 -0.0136 0.9295
vn -0.3678 -0.0447 0.9289
vn 0.3659 0.1721 0.9146
vn -0.3670 0.1446 0.9189
vn -0.0925 0.9957 -0.0034
vn -0.9087 0.1599 0.3856
vn -0.9144 -0.1079 -0.3903
vn -0.9088 0.1257 -0.3979
vn 0.8400 -0.0586 -0.5394
vn 0.8560 0.0426 0.5152
vn 0.8609 -0.0187 -0.5084
vn 0.8428 0.0171 0.5380
vn 0.8337 -0.0100 -0.5522
vn 0.8645 0.0649 0.4984
vn 0.6791 -0.6191 -0.3945
vn 0.6799 -0.5237 0.5132
vn -0.7441 0.6584 -0.1136
vn -0.4404 0.8978 -0.0008
vn -0.4682 0.5674 -0.6774
vn -0.3658 0.0917 -0.9262
vn 0.4682 0.5674 -0.6774
vn 0.3671 0.0640 -0.9280
vn 0.9057 0.1476 -0.3975
vn 0.7441 0.6584 -0.1136
vn 0.9919 0.0669 0.1076
vn 0.9123 0.1301 0.3884
vn 0.3685 -0.0946 -0.9248
vn -0.3677 -0.1254 -0.9214
vn 0.0788 0.9939 -0.0774
vn 0.0926 0.9957 -0.0036
vn -0.0001 0.9169 -0.3992
vn 0.6228 0.5667 -0.5395
vn 0.7646 -0.6441 -0.0207
vn 0.6007 -0.5747 -0.5557
vn 0.6612 -0.1477 -0.7356
vn 0.2442 0.4599 0.8537
vn 0.7315 -0.6767 -0.0832
vn 0.4698 -0.5854 -0.6608
vn -0.6599 0.2802 -0.6972
vn -0.7639 -0.6450 -0.0210
vn -0.6014 0.5228 -0.6042
vn -0.6211 -0.7222 -0.3046
vn -0.7315 -0.6767 -0.0832
vn -0.4698 -0.5854 -0.6608
vn -0.8337 -0.0101 -0.5521
vn -0.6790 -0.6191 -0.3945
vn -0.6799 -0.5237 0.5133
vn -0.8646 0.0649 0.4983
vn -0.8609 -0.0187 -0.5084
vn -0.8428 0.0171 0.5380
vn -0.8400 -0.0586 -0.5394
vn -0.8560 0.0426 0.5152
vn -0.0000 -0.5211 0.8535
vn -0.0000 -0.6860 -0.7276
vn 0.0001 -0.0292 -0.9996
vn -0.0000 -0.0365 -0.9993
vn -0.0000 -0.1079 -0.9942
vn -0.0000 0.0824 0.9966
vn -0.0000 0.0321 0.9995
vn -0.0002 0.1201 0.9928
vt 0.426430 0.920700
vt 0.462033 0.972812
vt 0.426430 0.933598
vt 0.595139 0.871999
vt 0.438679 0.920700
vt 0.470435 0.981724
vt 0.480332 0.070727
vt 0.479875 0.643098
vt 0.550515 0.854667
vt 0.549014 0.897243
vt 0.438679 0.933598
vt 0.586779 0.863048
vt 0.546187 0.862860
vt 0.479272 0.933598
vt 0.537743 0.871733
vt 0.491520 0.933598
vt 0.546043 0.893882
vt 0.516967 0.933598
vt 0.586633 0.894069
vt 0.557560 0.933598
vt 0.519431 0.972812
vt 0.491520 0.920700
vt 0.519431 0.959613
vt 0.504719 0.920700
vt 0.244668 0.859664
vt 0.755131 0.859664
vt 0.241408 0.822082
vt 0.758390 0.822082
vt 0.450785 0.815946
vt 0.539549 0.809983
vt 0.550295 0.902114
vt 0.450785 0.897243
vt 0.514994 0.890028
vt 0.488098 0.897243
vt 0.399143 0.897243
vt 0.601699 0.897274
vt 0.251602 0.897254
vt 0.748151 0.879321
vt 0.748196 0.897254
vt 0.244668 0.784500
vt 0.755130 0.784500
vt 0.600655 0.897243
vt 0.601883 0.859981
vt 0.549013 0.815946
vt 0.539509 0.857430
vt 0.515103 0.866425
vt 0.511701 0.897243
vt 0.511701 0.819965
vt 0.503934 0.845478
vt 0.534705 0.018631
vt 0.580620 0.792270
vt 0.517226 0.643247
vt 0.516104 0.070882
vt 0.466618 0.018631
vt 0.515811 0.804491
vt 0.542426 0.037474
vt 0.599772 0.789278
vt 0.395573 0.787159
vt 0.560850 0.640478
vt 0.570289 0.251334
vt 0.426784 0.251474
vt 0.552808 0.251161
vt 0.576472 0.069647
vt 0.419923 0.069713
vt 0.558817 0.069554
vt 0.437588 0.069554
vt 0.444256 0.251263
vt 0.577755 0.639187
vt 0.419597 0.638630
vt 0.436408 0.640028
vt 0.534705 0.056317
vt 0.414513 0.790635
vt 0.498229 0.071067
vt 0.481641 0.250707
vt 0.498528 0.250585
vt 0.515417 0.250675
vt 0.498541 0.643670
vt 0.466618 0.056317
vt 0.478881 0.803991
vt 0.458884 0.037474
vt 0.497322 0.805574
vt 0.470435 0.950702
vt 0.557560 0.920700
vt 0.537681 0.884931
vt 0.504719 0.933598
vt 0.511028 0.950702
vt 0.516967 0.920700
vt 0.511028 0.981724
vt 0.479272 0.920700
vt 0.413232 0.933598
vt 0.595077 0.885197
vt 0.569809 0.933598
vt 0.413232 0.920700
vt 0.462033 0.959613
vt 0.569809 0.920700
vt 0.488097 0.819965
vt 0.503954 0.821875
vt 0.600655 0.815946
vt 0.590904 0.852398
vt 0.399143 0.815947
vt 0.590936 0.815101
vt 0.251608 0.746911
vt 0.748191 0.746911
vt 0.752738 0.833885
s 1
usemtl Axe_Mat
f 53/93/1 1/1/2 52/90/3
f 1/1/2 2/3/4 52/90/3
f 1/1/2 3/5/5 2/3/4
f 3/5/5 7/11/6 2/3/4
f 51/89/7 8/14/8 7/11/6
f 3/5/5 51/89/7 7/11/6
f 36/66/9 4/7/10 37/67/11
f 4/7/10 42/74/12 37/67/11
f 37/67/11 42/74/12 39/70/13
f 42/74/12 5/8/14 39/70/13
f 39/70/13 5/8/14 40/72/15
f 5/8/14 46/79/16 40/72/15
f 6/9/17 22/43/18 7/12/6
f 7/12/6 22/43/18 2/4/4
f 7/12/6 8/13/8 6/9/17
f 6/9/17 8/13/8 24/46/19
f 24/46/19 8/13/8 9/15/20
f 18/33/21 24/46/19 9/15/20
f 49/84/22 18/33/21 9/15/20
f 10/17/23 18/33/21 49/84/22
f 10/17/23 17/31/24 18/33/21
f 19/36/25 17/31/24 10/17/23
f 11/19/26 19/36/25 10/17/23
f 13/23/27 12/21/28 50/86/29
f 12/21/28 51/88/7 50/86/29
f 50/86/29 51/88/7 3/6/5
f 48/82/30 50/86/29 3/6/5
f 3/6/5 1/2/2 48/82/30
f 1/2/2 53/94/1 48/82/30
f 20/37/31 14/25/32 19/35/25
f 19/35/25 14/25/32 56/100/33
f 14/25/32 15/27/34 56/100/33
f 15/27/34 21/40/35 56/100/33
f 21/40/35 57/102/36 56/100/33
f 19/35/25 56/100/33 16/29/37
f 17/32/24 19/35/25 16/29/37
f 17/32/24 16/29/37 54/96/38
f 18/34/21 17/32/24 54/96/38
f 22/43/18 20/38/31 19/36/25
f 57/103/36 21/41/39 55/98/40
f 55/98/40 21/41/39 22/42/18
f 21/41/39 15/28/41 22/42/18
f 15/28/41 14/26/42 22/42/18
f 14/26/42 20/39/31 22/42/18
f 22/42/18 23/44/43 55/98/40
f 6/10/17 23/44/43 22/42/18
f 6/10/17 24/47/19 23/44/43
f 24/47/19 25/48/44 23/44/43
f 31/59/45 26/51/46 29/55/47
f 27/52/48 31/59/45 29/55/47
f 33/62/49 31/59/45 27/52/48
f 44/76/50 33/62/49 27/52/48
f 35/65/51 33/62/49 44/76/50
f 28/53/52 35/65/51 44/76/50
f 40/71/15 46/78/16 47/80/53
f 30/56/54 40/71/15 47/80/53
f 47/80/53 29/54/47 30/56/54
f 29/54/47 26/50/46 30/56/54
f 38/68/55 30/57/54 26/51/46
f 31/59/45 38/68/55 26/51/46
f 32/60/56 38/68/55 31/59/45
f 33/62/49 32/60/56 31/59/45
f 34/63/57 32/60/56 33/62/49
f 35/65/51 34/63/57 33/62/49
f 32/61/56 34/64/57 36/66/9
f 37/67/11 32/61/56 36/66/9
f 32/61/56 37/67/11 38/69/55
f 37/67/11 39/70/13 38/69/55
f 30/58/54 38/69/55 39/70/13
f 40/72/15 30/58/54 39/70/13
f 42/74/12 4/7/10 41/73/58
f 43/75/59 42/74/12 41/73/58
f 43/75/59 41/73/58 28/53/52
f 5/8/14 42/74/12 43/75/59
f 44/76/50 43/75/59 28/53/52
f 45/77/60 5/8/14 43/75/59
f 45/77/60 43/75/59 44/76/50
f 46/79/16 5/8/14 45/77/60
f 27/52/48 45/77/60 44/76/50
f 47/81/53 46/79/16 45/77/60
f 47/81/53 45/77/60 27/52/48
f 29/55/47 47/81/53 27/52/48
f 25/48/44 24/47/19 18/34/21
f 54/96/38 25/48/44 18/34/21
f 52/91/3 2/4/4 22/43/18
f 19/36/25 52/91/3 22/43/18
f 52/91/3 19/36/25 11/19/26
f 48/83/30 11/20/26 10/18/23
f 50/87/29 48/83/30 10/18/23
f 50/87/29 10/18/23 49/85/22
f 13/24/27 50/87/29 49/85/22
f 49/85/22 9/16/20 13/24/27
f 9/16/20 12/22/28 13/24/27
f 12/22/28 9/16/20 8/14/8
f 51/89/7 12/22/28 8/14/8
f 53/95/1 52/92/3 11/20/26
f 48/83/30 53/95/1 11/20/26
f 25/49/44 54/97/38 23/45/43
f 54/97/38 16/30/37 23/45/43
f 55/99/40 23/45/43 16/30/37
f 56/101/33 55/99/40 16/30/37
f 55/99/40 56/101/33 57/104/36
