# Blender 3.5.1
# www.blender.org
mtllib rifle.mtl
o Rifle_Mesh
v 0.000718 -0.009517 0.006796
v 0.000718 -0.009798 -0.000107
v -0.000625 -0.009798 -0.000107
v -0.000625 -0.009517 0.006796
v -0.000625 0.007106 -0.003239
v -0.000625 0.005003 0.004099
v 0.000718 0.005003 0.004099
v 0.000718 0.007106 -0.003239
v -0.000625 -0.008973 0.008621
v 0.000718 -0.033219 0.013279
v -0.000625 -0.033219 0.013279
v 0.000718 -0.008973 0.008621
v 0.000718 -0.006357 0.007214
v -0.000625 -0.006357 0.007214
v -0.000625 0.007347 0.005646
v 0.000718 0.007347 0.005646
v 0.000718 -0.008973 -0.002086
v -0.000625 -0.008973 -0.002086
v -0.000625 -0.033219 0.002572
v 0.000718 -0.033219 0.002572
v 0.000046 0.052681 -0.028115
v 0.004142 0.052681 -0.025751
v 0.003292 0.238936 -0.025260
v 0.000046 0.238936 -0.027134
v -0.004049 0.052681 -0.025751
v -0.003199 0.238936 -0.025260
v -0.004049 0.052681 -0.021022
v -0.003199 0.238936 -0.021512
v 0.004142 0.052681 -0.025751
v 0.003292 0.238936 -0.021512
v 0.003292 0.238936 -0.025260
v 0.004142 0.052681 -0.021022
v 0.000046 0.238936 -0.019638
v 0.000046 0.052681 -0.018657
v 0.000046 0.052681 -0.018657
v -0.004049 0.052681 -0.021022
v -0.003199 0.238936 -0.021512
v 0.000046 0.238936 -0.019638
v 0.001219 0.002424 -0.026317
v 0.001592 -0.002122 -0.017665
v 0.001592 0.000155 -0.019119
v 0.001218 0.005602 -0.026157
v 0.001219 0.003703 -0.027462
v 0.001219 -0.002175 -0.030720
v -0.001029 0.005602 -0.026157
v 0.001219 0.003703 -0.027462
v 0.001218 0.005602 -0.026157
v -0.001029 0.003703 -0.027462
v -0.001028 -0.002175 -0.030720
v 0.001219 -0.002175 -0.030720
v 0.000046 0.238936 -0.019638
v 0.003292 0.238936 -0.025260
v 0.003292 0.238936 -0.021512
v 0.000046 0.238936 -0.027134
v -0.003199 0.238936 -0.021512
v -0.003199 0.238936 -0.025260
v -0.006592 0.052681 -0.023422
v 0.006818 0.052681 -0.023422
v 0.006818 0.126098 -0.023422
v -0.006592 0.126098 -0.023422
v -0.006592 0.130850 -0.016092
v 0.006818 0.130850 -0.016092
v 0.000718 -0.009517 0.006796
v -0.000625 -0.009517 0.006796
v -0.000625 -0.031978 0.011276
v 0.000718 -0.031978 0.011276
v -0.000625 -0.009798 -0.000107
v 0.000718 -0.009798 -0.000107
v 0.000718 -0.031978 0.004228
v -0.000625 -0.031978 0.004228
v -0.000625 -0.033136 0.007752
v -0.000625 -0.031978 0.004228
v 0.000718 -0.031978 0.004228
v 0.000718 -0.033136 0.007752
v -0.000625 -0.031978 0.011276
v 0.000718 -0.031978 0.011276
v 0.000718 0.007347 0.005646
v -0.000625 0.007347 0.005646
v -0.000625 0.010381 -0.003239
v 0.000718 0.010381 -0.003239
v 0.000718 0.012384 -0.004963
v -0.000625 0.012384 -0.004963
v 0.000718 0.012384 -0.008559
v -0.000625 0.012384 -0.008559
v -0.000625 0.005003 0.004099
v -0.000625 -0.005755 0.005124
v 0.000718 -0.005755 0.005124
v 0.000718 0.005003 0.004099
v 0.000718 -0.005755 0.005124
v -0.000625 -0.005755 0.005124
v -0.000625 -0.008973 -0.002086
v 0.000718 -0.008973 -0.002086
v -0.001028 -0.002175 -0.030720
v -0.001029 0.003703 -0.027462
v -0.001029 0.002425 -0.026318
v -0.001029 0.005602 -0.026157
v -0.001393 0.000155 -0.019119
v -0.001393 -0.002122 -0.017665
v -0.001028 -0.002175 -0.030720
v -0.001029 0.002425 -0.026318
v 0.001219 0.002424 -0.026317
v 0.001219 -0.002175 -0.030720
v -0.001029 0.002425 -0.026318
v -0.001393 -0.002122 -0.017665
v 0.001592 -0.002122 -0.017665
v 0.001219 0.002424 -0.026317
v 0.006818 0.052681 -0.023422
v -0.006592 0.052681 -0.023422
v -0.004939 0.052681 -0.029135
v 0.005118 0.052681 -0.029135
v 0.008143 -0.115800 -0.004297
v 0.003610 -0.119612 -0.019895
v -0.004242 -0.119572 -0.019685
v -0.008707 -0.115785 -0.004267
v 0.004396 -0.120313 0.011606
v -0.005447 -0.120300 0.011401
v -0.004073 -0.042122 -0.018448
v -0.008707 -0.115785 -0.004267
v -0.004242 -0.119572 -0.019685
v -0.002755 -0.038505 0.002072
v -0.005447 -0.120300 0.011401
v -0.003219 -0.036170 -0.011470
v -0.003219 -0.002122 -0.017665
v -0.004380 0.000446 -0.005015
v -0.004939 0.006162 -0.027811
v -0.006592 0.052681 -0.023422
v -0.004939 0.052681 -0.029135
v -0.006592 0.052681 -0.008763
v -0.006592 0.126098 -0.008763
v -0.006592 0.126098 -0.023422
v -0.006592 0.130850 -0.016092
v 0.008143 -0.115800 -0.004297
v 0.004114 -0.042150 -0.018604
v 0.003610 -0.119612 -0.019895
v 0.002699 -0.038505 0.002072
v 0.004396 -0.120313 0.011606
v 0.003263 -0.036170 -0.011470
v 0.004521 0.000446 -0.005015
v 0.003263 -0.002122 -0.017665
v 0.005118 0.006162 -0.027811
v 0.006818 0.052681 -0.023422
v 0.005118 0.052681 -0.029135
v 0.006818 0.052681 -0.008763
v 0.006818 0.126098 -0.008763
v 0.006818 0.130850 -0.016092
v 0.006818 0.126098 -0.023422
v -0.000625 0.012384 -0.008559
v -0.000625 0.015422 -0.008559
v 0.000718 0.015422 -0.008559
v 0.000718 0.012384 -0.008559
v 0.005118 0.006162 -0.027811
v 0.005118 0.052681 -0.029135
v -0.004939 0.052681 -0.029135
v -0.004939 0.006162 -0.027811
v 0.003263 -0.002122 -0.017665
v -0.003219 -0.002122 -0.017665
v 0.003263 -0.036170 -0.011470
v -0.003219 -0.036170 -0.011470
v -0.004073 -0.042122 -0.018448
v 0.004114 -0.042150 -0.018604
v 0.003610 -0.119612 -0.019895
v -0.004242 -0.119572 -0.019685
v 0.006818 0.126098 -0.008763
v -0.006592 0.052681 -0.008763
v -0.006592 0.126098 -0.008763
v 0.006818 0.052681 -0.008763
v 0.004521 0.000446 -0.005015
v -0.004380 0.000446 -0.005015
v -0.002755 -0.038505 0.002072
v 0.002699 -0.038505 0.002072
v -0.005447 -0.120300 0.011401
v 0.004396 -0.120313 0.011606
v -0.000625 -0.035078 0.007925
v -0.000625 -0.033219 0.013279
v 0.000718 -0.033219 0.013279
v 0.000718 -0.035078 0.007925
v -0.000625 -0.033219 0.002572
v 0.000718 -0.033219 0.002572
v 0.000718 0.007106 -0.003239
v -0.000625 0.005102 -0.004963
v -0.000625 0.007106 -0.003239
v 0.000718 0.005102 -0.004963
v -0.000625 0.005102 -0.012156
v 0.000718 0.005102 -0.012156
v 0.000760 0.000042 0.003223
v 0.000760 -0.002531 0.000914
v 0.000760 -0.003167 0.001466
v 0.001932 -0.005996 -0.004094
v 0.001932 -0.001890 -0.004638
v 0.001932 -0.009726 -0.007276
v 0.001932 0.000997 -0.007820
v 0.000760 -0.003167 0.001466
v -0.000667 0.000042 0.003223
v 0.000760 0.000042 0.003223
v -0.000667 -0.003167 0.001466
v -0.001839 -0.005996 -0.004094
v 0.001932 -0.005996 -0.004094
v -0.001839 -0.009726 -0.007276
v 0.001932 -0.009726 -0.007276
v -0.000667 -0.003167 0.001466
v -0.000667 -0.002531 0.000914
v -0.000667 0.000042 0.003223
v -0.001839 -0.001890 -0.004638
v -0.001839 -0.005996 -0.004094
v -0.001839 0.000997 -0.007820
v -0.001839 -0.009726 -0.007276
v 0.000760 -0.002531 0.000914
v 0.000760 0.000042 0.003223
v -0.000667 0.000042 0.003223
v -0.000667 -0.002531 0.000914
v 0.001932 -0.001890 -0.004638
v -0.001839 -0.001890 -0.004638
v 0.001932 0.000997 -0.007820
v -0.001839 0.000997 -0.007820
v 0.006818 0.130850 -0.016092
v 0.006818 0.126098 -0.008763
v -0.006592 0.126098 -0.008763
v -0.006592 0.130850 -0.016092
v -0.000625 0.015422 -0.012156
v -0.000625 0.015422 -0.008559
v -0.000625 0.012384 -0.008559
v -0.000625 0.005102 -0.012156
v -0.000625 0.005102 -0.004963
v -0.000625 0.012384 -0.004963
v -0.000625 0.007106 -0.003239
v -0.000625 0.010381 -0.003239
v -0.000625 0.007347 0.005646
v -0.000625 0.005003 0.004099
v -0.000625 -0.006357 0.007214
v -0.000625 -0.005755 0.005124
v -0.000625 -0.008973 0.008621
v -0.000625 -0.009517 0.006796
v -0.000625 -0.033219 0.013279
v -0.000625 -0.008973 -0.002086
v -0.000625 -0.031978 0.011276
v -0.000625 -0.009798 -0.000107
v -0.000625 -0.035078 0.007925
v -0.000625 -0.031978 0.004228
v -0.000625 -0.033136 0.007752
v -0.000625 -0.033219 0.002572
v 0.000718 0.012384 -0.008559
v 0.000718 0.015422 -0.008559
v 0.000718 0.015422 -0.012156
v 0.000718 0.005102 -0.012156
v 0.000718 0.012384 -0.004963
v 0.000718 0.005102 -0.004963
v 0.000718 0.010381 -0.003239
v 0.000718 0.007106 -0.003239
v 0.000718 0.007347 0.005646
v 0.000718 0.005003 0.004099
v 0.000718 -0.006357 0.007214
v 0.000718 -0.005755 0.005124
v 0.000718 -0.008973 0.008621
v 0.000718 -0.009517 0.006796
v 0.000718 -0.008973 -0.002086
v 0.000718 -0.031978 0.011276
v 0.000718 -0.009798 -0.000107
v 0.000718 -0.033219 0.013279
v 0.000718 -0.033219 0.002572
v 0.000718 -0.033136 0.007752
v 0.000718 -0.031978 0.004228
v 0.000718 -0.035078 0.007925
vn -0.9218 -0.2403 0.3042
vn 0.9218 -0.2403 0.3042
vn 0.8857 -0.3649 -0.2870
vn -0.8857 -0.3649 -0.2870
vn 0.8581 -0.3281 -0.3949
vn -0.8581 -0.3281 -0.3949
vn -0.8507 -0.5036 0.1507
vn 0.8507 -0.5036 0.1507
vn -0.5853 -0.4053 0.7022
vn 0.5853 -0.4053 0.7022
vn -0.6746 0.2474 0.6955
vn 0.6746 0.2474 0.6955
vn 0.7521 0.1971 0.6288
vn -0.7521 0.1971 0.6288
vn -0.6043 0.4996 0.6206
vn 0.6043 0.4996 0.6206
vn -0.6100 -0.5185 -0.5992
vn -0.5904 0.3731 -0.7157
vn 0.5904 0.3731 -0.7157
vn 0.6100 -0.5185 -0.5992
vn 0.6849 0.6120 -0.3954
vn 0.8660 0.0053 -0.5000
vn -0.0000 0.0053 -1.0000
vn -0.0000 0.6119 -0.7909
vn -0.8660 0.0053 -0.5000
vn -0.6849 0.6120 -0.3955
vn -0.8660 0.0053 0.5000
vn -0.6849 0.6120 0.3954
vn 0.6849 0.6120 0.3955
vn 0.8660 0.0053 0.5000
vn -0.0000 0.6120 0.7909
vn -0.0000 0.0053 1.0000
vn 0.9986 -0.0119 -0.0506
vn 0.3176 -0.8335 -0.4521
vn 0.8660 -0.4977 0.0480
vn 0.6813 0.3927 -0.6178
vn 0.6885 0.3687 -0.6245
vn 0.5377 -0.6789 -0.5000
vn 0.6886 0.3687 -0.6244
vn -0.6817 0.3929 -0.6171
vn -0.6888 0.3689 -0.6241
vn -0.5384 -0.6785 -0.4998
vn 0.5377 -0.6788 -0.5000
vn 0.6850 0.6120 0.3954
vn 0.6849 0.6120 -0.3955
vn 0.0001 0.6120 -0.7909
vn -0.6849 0.6120 0.3955
vn 0.6138 0.3770 -0.6937
vn 0.8952 0.2317 -0.3806
vn -0.8956 0.2336 -0.3787
vn -0.6138 0.3770 -0.6936
vn -0.6027 0.7979 -0.0000
vn 0.6027 0.7979 -0.0000
vn -0.8901 0.2297 -0.3937
vn -0.8857 -0.3648 -0.2871
vn 0.8857 -0.3648 -0.2871
vn 0.8901 0.2297 -0.3937
vn 0.8403 0.3587 0.4064
vn -0.8403 0.3587 0.4064
vn 0.8403 0.3587 0.4065
vn -0.8403 0.3587 0.4065
vn -0.7846 0.6200 -0.0000
vn 0.7846 0.6200 -0.0000
vn -0.7712 0.5273 0.3566
vn 0.7712 0.5273 0.3566
vn 0.6242 0.7101 0.3259
vn -0.6242 0.7101 0.3259
vn 0.9045 0.3015 0.3015
vn -0.9045 0.3015 0.3015
vn 0.8645 0.2533 -0.4342
vn -0.8645 0.2533 -0.4342
vn -0.8662 -0.4973 0.0488
vn -0.6887 0.3689 -0.6241
vn -0.6817 0.3930 -0.6171
vn -0.9987 -0.0117 -0.0493
vn -0.3174 -0.8338 -0.4518
vn -0.8662 -0.4974 0.0488
vn -0.3175 -0.8337 -0.4518
vn -0.8662 -0.4973 0.0489
vn 0.8660 -0.4977 0.0479
vn -0.4831 0.5851 -0.6514
vn 0.8952 0.2318 -0.3805
vn 0.4805 0.5855 -0.6529
vn -0.4893 -0.6678 -0.5609
vn 0.4724 -0.6667 -0.5765
vn 0.8188 -0.5739 -0.0164
vn -0.8199 -0.5718 -0.0283
vn 0.4968 -0.6420 0.5840
vn -0.5145 -0.6431 0.5672
vn -0.8199 -0.5717 -0.0282
vn -0.6373 0.3628 -0.6799
vn -0.6801 0.1269 0.7220
vn -0.5144 -0.6431 0.5672
vn -0.8303 0.2240 -0.5103
vn -0.7293 -0.4270 -0.5346
vn -0.7259 0.0413 0.6865
vn -0.6243 -0.3670 -0.6896
vn -0.4830 0.5851 -0.6514
vn -0.7183 0.0101 0.6956
vn -0.6138 0.3769 0.6937
vn -0.6138 0.3769 -0.6937
vn -0.6027 0.7979 0.0001
vn 0.4723 -0.6668 -0.5765
vn 0.6271 0.3621 -0.6897
vn 0.6748 0.1236 0.7275
vn 0.4967 -0.6420 0.5841
vn 0.8329 0.2201 -0.5077
vn 0.7263 0.0378 0.6863
vn 0.7237 -0.4356 -0.5353
vn 0.6247 -0.3682 -0.6887
vn 0.8952 0.2318 -0.3806
vn 0.7184 0.0096 0.6956
vn 0.6138 0.3770 0.6936
vn 0.6027 0.7979 -0.0001
vn 0.6138 0.3770 -0.6936
vn 0.7071 -0.0002 0.7071
vn -0.7071 -0.0000 0.7071
vn -0.4831 0.5850 -0.6514
vn 0.6247 -0.3682 -0.6886
vn -0.7293 -0.4270 -0.5347
vn 0.8329 0.2202 -0.5077
vn -0.8303 0.2241 -0.5103
vn 0.6271 0.3622 -0.6896
vn -0.6138 0.3770 0.6937
vn -0.7184 0.0101 0.6956
vn 0.6138 0.3770 0.6937
vn 0.7184 0.0095 0.6956
vn -0.7259 0.0412 0.6866
vn -0.6402 -0.7682 -0.0000
vn 0.6402 -0.7682 -0.0000
vn -0.6100 -0.5184 -0.5993
vn 0.6100 -0.5184 -0.5993
vn -0.8507 -0.5036 0.1506
vn -0.6242 -0.7101 0.3259
vn 0.8507 -0.5036 0.1506
vn 0.6242 -0.7101 0.3258
vn -0.7071 -0.7071 0.0002
vn 0.7071 -0.7071 -0.0000
vn 0.6041 -0.5417 0.5845
vn 0.8050 0.5849 -0.0991
vn 0.5379 0.6879 0.4873
vn 0.7589 -0.4743 0.4463
vn 0.7831 0.5399 0.3087
vn 0.4341 -0.5847 0.6853
vn 0.4463 0.6629 0.6012
vn 0.5378 0.6880 0.4872
vn -0.5378 0.6880 0.4872
vn -0.6041 -0.5417 0.5845
vn -0.7589 -0.4743 0.4463
vn 0.7588 -0.4743 0.4463
vn -0.4341 -0.5846 0.6854
vn 0.4341 -0.5846 0.6854
vn -0.5379 0.6879 0.4873
vn -0.8050 0.5850 -0.0991
vn -0.6041 -0.5418 0.5845
vn -0.7831 0.5399 0.3087
vn -0.7588 -0.4743 0.4463
vn -0.4463 0.6629 0.6012
vn -0.4341 -0.5847 0.6853
vn -0.8050 0.5849 -0.0991
vn 0.7831 0.5399 0.3086
vn -0.7831 0.5399 0.3086
vn 0.4463 0.6629 0.6011
vn -0.4463 0.6628 0.6013
vn -0.6138 0.3770 0.6936
vn -0.7071 -0.0002 0.7071
vn -1.0000 -0.0000 -0.0000
vn -0.7071 -0.7071 -0.0000
vn -0.6242 0.7101 0.3258
vn -0.7713 0.5272 0.3566
vn -0.6043 0.4997 0.6206
vn -0.7522 0.1971 0.6288
vn -0.8644 0.2533 -0.4343
vn -0.8857 -0.3648 -0.2870
vn -0.5853 -0.4052 0.7023
vn 1.0000 -0.0000 -0.0000
vn 0.7071 -0.0000 0.7071
vn 0.7071 -0.7071 -0.0003
vn 0.6242 -0.7101 0.3259
vn 0.7713 0.5272 0.3566
vn 0.6043 0.4996 0.6207
vn 0.7522 0.1971 0.6288
vn 0.8644 0.2533 -0.4343
vn 0.6746 0.2473 0.6955
vn 0.8857 -0.3648 -0.2870
vn 0.5904 0.3732 -0.7156
vt 0.935594 0.886080
vt 0.935593 0.915562
vt 0.941327 0.915562
vt 0.941327 0.886080
vt 0.909041 0.852285
vt 0.909041 0.820852
vt 0.903508 0.820852
vt 0.903508 0.852285
vt 0.889676 0.767227
vt 0.894438 0.677289
vt 0.889676 0.677289
vt 0.894438 0.767227
vt 0.894438 0.777755
vt 0.889676 0.777755
vt 0.889676 0.826636
vt 0.894438 0.826636
vt 0.903507 0.743843
vt 0.909040 0.743843
vt 0.909039 0.639342
vt 0.903506 0.639342
vt 0.651292 0.865980
vt 0.663032 0.865980
vt 0.663031 0.409253
vt 0.651292 0.409253
vt 0.639552 0.865980
vt 0.639553 0.409253
vt 0.627812 0.865980
vt 0.627814 0.409253
vt 0.663032 0.865980
vt 0.674770 0.409253
vt 0.663031 0.409253
vt 0.674771 0.865980
vt 0.686509 0.409253
vt 0.686512 0.865980
vt 0.616072 0.865980
vt 0.627812 0.865980
vt 0.627814 0.409253
vt 0.616075 0.409253
vt 0.130596 0.220298
vt 0.066176 0.276411
vt 0.073936 0.254332
vt 0.122858 0.194565
vt 0.137771 0.207270
vt 0.176731 0.250541
vt 0.568658 0.674582
vt 0.539351 0.644536
vt 0.539354 0.674580
vt 0.568655 0.644538
vt 0.568658 0.549295
vt 0.539353 0.549292
vt 0.961365 0.021205
vt 0.948314 0.043811
vt 0.961365 0.036276
vt 0.935262 0.036275
vt 0.948314 0.013670
vt 0.935263 0.021205
vt 0.825989 0.827139
vt 0.864329 0.827227
vt 0.864600 0.708956
vt 0.826259 0.708869
vt 0.826317 0.683895
vt 0.864657 0.683982
vt 0.935594 0.886080
vt 0.941327 0.886080
vt 0.941328 0.788343
vt 0.935594 0.788343
vt 0.941328 0.661827
vt 0.935594 0.661827
vt 0.935594 0.758268
vt 0.941328 0.758268
vt 0.941328 0.773306
vt 0.941328 0.758268
vt 0.935594 0.758268
vt 0.935594 0.773306
vt 0.941328 0.788343
vt 0.935594 0.788343
vt 0.894438 0.826636
vt 0.889676 0.826636
vt 0.889676 0.859912
vt 0.894438 0.859911
vt 0.894438 0.869279
vt 0.889676 0.869279
vt 0.894438 0.882025
vt 0.889676 0.882025
vt 0.909041 0.820852
vt 0.909041 0.776354
vt 0.903508 0.776354
vt 0.903508 0.820852
vt 0.903508 0.776354
vt 0.909041 0.776354
vt 0.909040 0.743843
vt 0.903507 0.743843
vt 0.275622 0.277088
vt 0.236555 0.235124
vt 0.229363 0.247939
vt 0.222118 0.221673
vt 0.173275 0.280343
vt 0.165417 0.302102
vt 0.165874 0.200382
vt 0.207846 0.200400
vt 0.207853 0.185741
vt 0.165881 0.185724
vt 0.207846 0.200400
vt 0.272340 0.202774
vt 0.272340 0.183307
vt 0.207853 0.185741
vt 0.864329 0.827227
vt 0.825989 0.827139
vt 0.830687 0.840157
vt 0.859440 0.840223
vt 0.203871 0.837740
vt 0.200721 0.753494
vt 0.115510 0.754575
vt 0.115470 0.837869
vt 0.199755 0.924464
vt 0.115468 0.923411
vt 0.354729 0.644009
vt 0.299733 0.960346
vt 0.366008 0.975362
vt 0.266189 0.630037
vt 0.233058 0.980962
vt 0.323804 0.618190
vt 0.345633 0.471681
vt 0.291162 0.462431
vt 0.383027 0.434438
vt 0.361313 0.235910
vt 0.382020 0.235251
vt 0.298619 0.238405
vt 0.291579 0.061489
vt 0.354273 0.058994
vt 0.322117 0.039920
vt 0.473510 0.953054
vt 0.428382 0.635597
vt 0.406065 0.965983
vt 0.517886 0.624543
vt 0.540475 0.975805
vt 0.460784 0.610817
vt 0.498503 0.456463
vt 0.443841 0.463894
vt 0.407768 0.425446
vt 0.436117 0.228062
vt 0.415407 0.226713
vt 0.498595 0.232661
vt 0.511573 0.056357
vt 0.481824 0.033806
vt 0.449095 0.051758
vt 0.889676 0.882025
vt 0.889676 0.892789
vt 0.894438 0.892789
vt 0.894438 0.882025
vt 0.768626 0.211452
vt 0.767459 0.019260
vt 0.725926 0.019512
vt 0.727093 0.211704
vt 0.775951 0.261872
vt 0.720571 0.262208
vt 0.776819 0.404795
vt 0.721439 0.405131
vt 0.712933 0.443062
vt 0.785765 0.443187
vt 0.780017 0.763146
vt 0.712933 0.762966
vt 0.864714 0.659008
vt 0.826643 0.540650
vt 0.826374 0.658921
vt 0.864983 0.540738
vt 0.865276 0.391010
vt 0.826936 0.390922
vt 0.827194 0.277728
vt 0.865534 0.277815
vt 0.821728 0.042336
vt 0.867666 0.042336
vt 0.889676 0.658315
vt 0.889676 0.677289
vt 0.894438 0.677289
vt 0.894438 0.658315
vt 0.889676 0.639342
vt 0.894438 0.639342
vt 0.903508 0.852285
vt 0.909040 0.863169
vt 0.909041 0.852285
vt 0.903508 0.863169
vt 0.909040 0.892789
vt 0.903507 0.892789
vt 0.694139 0.269627
vt 0.632206 0.287396
vt 0.629356 0.269461
vt 0.582487 0.290632
vt 0.614386 0.326709
vt 0.525480 0.290137
vt 0.615472 0.376650
vt 0.103157 0.703165
vt 0.086165 0.746195
vt 0.102972 0.746266
vt 0.086349 0.703093
vt 0.072855 0.629534
vt 0.117282 0.629724
vt 0.073103 0.571763
vt 0.117530 0.571953
vt 0.629355 0.269461
vt 0.632206 0.287396
vt 0.694139 0.269627
vt 0.614386 0.326709
vt 0.582487 0.290632
vt 0.615472 0.376650
vt 0.525481 0.290137
vt 0.158825 0.699662
vt 0.158825 0.743968
vt 0.177108 0.743968
vt 0.177108 0.699662
vt 0.143803 0.628034
vt 0.192130 0.628033
vt 0.143803 0.572970
vt 0.192130 0.572970
vt 0.864657 0.683982
vt 0.864714 0.659008
vt 0.826374 0.658921
vt 0.826317 0.683895
vt 0.194052 0.296100
vt 0.212225 0.300464
vt 0.208539 0.315811
vt 0.181530 0.348243
vt 0.217875 0.356971
vt 0.226711 0.320175
vt 0.229015 0.348939
vt 0.232989 0.332390
vt 0.274202 0.358502
vt 0.263541 0.368467
vt 0.265493 0.429642
vt 0.255663 0.424063
vt 0.269430 0.444567
vt 0.259547 0.445101
vt 0.262694 0.576261
vt 0.215331 0.431575
vt 0.254928 0.564021
vt 0.224329 0.438145
vt 0.235644 0.569765
vt 0.219320 0.555469
vt 0.237124 0.559745
vt 0.208595 0.563269
vt 0.083649 0.308840
vt 0.087380 0.294096
vt 0.069922 0.289678
vt 0.057243 0.339774
vt 0.101108 0.313259
vt 0.092161 0.348611
vt 0.107014 0.325103
vt 0.102990 0.341002
vt 0.146418 0.350748
vt 0.136028 0.360224
vt 0.137190 0.419193
vt 0.127784 0.413702
vt 0.140809 0.433621
vt 0.131280 0.434020
vt 0.088834 0.420466
vt 0.125433 0.548552
vt 0.097426 0.426903
vt 0.132771 0.560438
vt 0.080796 0.547283
vt 0.108327 0.544223
vt 0.091222 0.539894
vt 0.106783 0.553861
s 1
usemtl Huntsman_Rifle_Mat
f 3/3/1 2/2/2 1/1/3
f 4/4/4 3/3/1 1/1/3
f 7/7/5 6/6/6 5/5/7
f 8/8/8 7/7/5 5/5/7
f 11/11/9 10/10/10 9/9/11
f 10/10/10 12/12/12 9/9/11
f 9/9/11 12/12/12 13/13/13
f 14/14/14 9/9/11 13/13/13
f 14/14/14 13/13/13 15/15/15
f 13/13/13 16/16/16 15/15/15
f 19/19/17 18/18/18 17/17/19
f 20/20/20 19/19/17 17/17/19
f 23/23/21 22/22/22 21/21/23
f 24/24/24 23/23/21 21/21/23
f 24/24/24 21/21/23 25/25/25
f 26/26/26 24/24/24 25/25/25
f 26/26/26 25/25/25 27/27/27
f 28/28/28 26/26/26 27/27/27
f 31/31/21 30/30/29 29/29/22
f 30/30/29 32/32/30 29/29/22
f 30/30/29 33/33/31 32/32/30
f 33/33/31 34/34/32 32/32/30
f 37/37/28 36/36/27 35/35/32
f 38/38/31 37/37/28 35/35/32
f 41/41/33 40/40/34 39/39/35
f 39/39/35 42/42/36 41/41/33
f 39/39/35 43/43/37 42/42/36
f 43/43/37 39/39/35 44/44/38
f 47/47/36 46/46/39 45/45/40
f 46/46/39 48/48/41 45/45/40
f 49/49/42 48/48/41 46/46/39
f 50/50/43 49/49/42 46/46/39
f 53/53/44 52/52/45 51/51/31
f 52/52/45 54/54/46 51/51/31
f 55/55/47 51/51/31 54/54/46
f 56/56/26 55/55/47 54/54/46
f 59/59/48 58/58/49 57/57/50
f 60/60/51 59/59/48 57/57/50
f 60/60/51 61/61/52 59/59/48
f 61/61/52 62/62/53 59/59/48
f 65/65/54 64/64/55 63/63/56
f 66/66/57 65/65/54 63/63/56
f 69/69/58 68/68/2 67/67/1
f 70/70/59 69/69/58 67/67/1
f 73/73/60 72/72/61 71/71/62
f 74/74/63 73/73/60 71/71/62
f 74/74/63 71/71/62 75/75/54
f 76/76/57 74/74/63 75/75/54
f 79/79/64 78/78/15 77/77/16
f 80/80/65 79/79/64 77/77/16
f 80/80/65 81/81/66 79/79/64
f 81/81/66 82/82/67 79/79/64
f 81/81/66 83/83/68 82/82/67
f 83/83/68 84/84/69 82/82/67
f 87/87/70 86/86/71 85/85/6
f 88/88/5 87/87/70 85/85/6
f 91/91/18 90/90/71 89/89/70
f 92/92/19 91/91/18 89/89/70
f 95/95/72 94/94/73 93/93/42
f 96/96/74 94/94/73 95/95/72
f 97/97/75 96/96/74 95/95/72
f 95/95/72 98/98/76 97/97/75
f 101/101/35 100/100/77 99/99/42
f 102/102/43 101/101/35 99/99/42
f 105/105/34 104/104/78 103/103/79
f 106/106/80 105/105/34 103/103/79
f 109/109/81 108/108/50 107/107/82
f 110/110/83 109/109/81 107/107/82
f 113/113/84 112/112/85 111/111/86
f 114/114/87 113/113/84 111/111/86
f 111/111/86 115/115/88 114/114/87
f 115/115/88 116/116/89 114/114/87
f 119/119/84 118/118/90 117/117/91
f 120/120/92 117/117/91 118/118/90
f 118/118/90 121/121/93 120/120/92
f 117/117/91 120/120/92 122/122/94
f 122/122/94 120/120/92 123/123/95
f 120/120/92 124/124/96 123/123/95
f 125/125/97 123/123/95 124/124/96
f 125/125/97 124/124/96 126/126/50
f 126/126/50 127/127/98 125/125/97
f 124/124/96 128/128/99 126/126/50
f 128/128/99 129/129/100 126/126/50
f 130/130/101 126/126/50 129/129/100
f 131/131/102 130/130/101 129/129/100
f 134/134/103 133/133/104 132/132/86
f 135/135/105 132/132/86 133/133/104
f 136/136/106 132/132/86 135/135/105
f 137/137/107 135/135/105 133/133/104
f 135/135/105 137/137/107 138/138/108
f 137/137/107 139/139/109 138/138/108
f 139/139/109 140/140/110 138/138/108
f 138/138/108 140/140/110 141/141/111
f 141/141/111 140/140/110 142/142/83
f 143/143/112 138/138/108 141/141/111
f 144/144/113 143/143/112 141/141/111
f 141/141/111 145/145/114 144/144/113
f 141/141/111 146/146/115 145/145/114
f 149/149/116 148/148/117 147/147/69
f 150/150/68 149/149/116 147/147/69
f 153/153/118 152/152/83 151/151/119
f 151/151/119 154/154/97 153/153/118
f 151/151/119 155/155/109 154/154/97
f 155/155/109 156/156/120 154/154/97
f 157/157/121 156/156/120 155/155/109
f 158/158/122 156/156/120 157/157/121
f 159/159/91 158/158/122 157/157/121
f 159/159/91 157/157/121 160/160/123
f 160/160/123 161/161/103 159/159/91
f 161/161/103 162/162/84 159/159/91
f 165/165/124 164/164/125 163/163/126
f 164/164/125 166/166/127 163/163/126
f 167/167/108 166/166/127 164/164/125
f 168/168/128 167/167/108 164/164/125
f 168/168/128 169/169/92 167/167/108
f 169/169/92 170/170/105 167/167/108
f 170/170/105 169/169/92 171/171/89
f 172/172/88 170/170/105 171/171/89
f 175/175/10 174/174/9 173/173/129
f 176/176/130 175/175/10 173/173/129
f 176/176/130 173/173/129 177/177/131
f 178/178/132 176/176/130 177/177/131
f 181/181/133 180/180/134 179/179/135
f 180/180/134 182/182/136 179/179/135
f 180/180/134 183/183/137 182/182/136
f 183/183/137 184/184/138 182/182/136
f 187/187/139 186/186/140 185/185/141
f 186/186/140 187/187/139 188/188/142
f 189/189/143 186/186/140 188/188/142
f 188/188/142 190/190/144 189/189/143
f 190/190/144 191/191/145 189/189/143
f 194/194/146 193/193/147 192/192/139
f 193/193/147 195/195/148 192/192/139
f 192/192/139 195/195/148 196/196/149
f 197/197/150 192/192/139 196/196/149
f 196/196/149 198/198/151 197/197/150
f 198/198/151 199/199/152 197/197/150
f 202/202/153 201/201/154 200/200/155
f 200/200/155 201/201/154 203/203/156
f 204/204/157 200/200/155 203/203/156
f 203/203/156 205/205/158 204/204/157
f 205/205/158 206/206/159 204/204/157
f 209/209/147 208/208/146 207/207/140
f 210/210/160 209/209/147 207/207/140
f 210/210/160 207/207/140 211/211/161
f 212/212/162 210/210/160 211/211/161
f 211/211/161 213/213/163 212/212/162
f 213/213/163 214/214/164 212/212/162
f 217/217/165 216/216/113 215/215/53
f 218/218/52 217/217/165 215/215/53
f 221/221/69 220/220/166 219/219/167
f 221/221/69 219/219/167 222/222/168
f 221/221/69 222/222/168 223/223/134
f 224/224/169 221/221/69 223/223/134
f 224/224/169 223/223/134 225/225/7
f 226/226/170 224/224/169 225/225/7
f 226/226/170 225/225/7 227/227/171
f 225/225/7 228/228/6 227/227/171
f 229/229/172 227/227/171 228/228/6
f 230/230/173 229/229/172 228/228/6
f 231/231/11 229/229/172 230/230/173
f 231/231/11 230/230/173 232/232/174
f 233/233/175 231/231/11 232/232/174
f 230/230/173 234/234/18 232/232/174
f 235/235/54 233/233/175 232/232/174
f 232/232/174 234/234/18 236/236/1
f 237/237/129 233/233/175 235/235/54
f 236/236/1 234/234/18 238/238/59
f 239/239/62 237/237/129 235/235/54
f 234/234/18 240/240/17 238/238/59
f 240/240/17 237/237/129 239/239/62
f 238/238/59 240/240/17 239/239/62
f 243/243/176 242/242/177 241/241/68
f 244/244/178 243/243/176 241/241/68
f 244/244/178 241/241/68 245/245/66
f 246/246/179 244/244/178 245/245/66
f 246/246/179 245/245/66 247/247/180
f 248/248/135 246/246/179 247/247/180
f 247/247/180 249/249/181 248/248/135
f 249/249/181 250/250/5 248/248/135
f 250/250/5 249/249/181 251/251/182
f 252/252/183 250/250/5 251/251/182
f 251/251/182 253/253/184 252/252/183
f 252/252/183 253/253/184 254/254/185
f 255/255/186 252/252/183 254/254/185
f 254/254/185 253/253/184 256/256/57
f 257/257/2 255/255/186 254/254/185
f 253/253/184 258/258/10 256/256/57
f 259/259/132 255/255/186 257/257/2
f 256/256/57 258/258/10 260/260/63
f 261/261/58 259/259/132 257/257/2
f 258/258/10 262/262/130 260/260/63
f 262/262/130 259/259/132 261/261/58
f 260/260/63 262/262/130 261/261/58
