# Blender 4.1.0
# www.blender.org
mtllib Rocket.mtl
o Missile
v 0.034424 0.183922 -0.083140
v 0.012825 0.122772 -0.085649
v 0.012824 -0.052297 -0.085649
v 0.024964 -0.416199 -0.060298
v 0.083131 0.183922 -0.034448
v 0.020579 0.315598 -0.049702
v 0.049696 0.315598 -0.020594
v 0.060289 -0.416199 -0.024983
v 0.085645 0.122771 -0.012850
v 0.085645 -0.052297 -0.012850
v -0.083140 0.183923 -0.034423
v -0.049701 0.315598 -0.020579
v -0.049695 0.315599 0.020593
v -0.083130 0.183923 0.034448
v -0.085648 0.122772 -0.012824
v -0.085645 0.122772 0.012850
v -0.131661 -0.017823 -0.007866
v -0.131659 -0.017823 0.007906
v -0.024967 -0.416199 0.060298
v -0.012824 -0.052297 0.085649
v 0.012850 -0.052297 0.085645
v 0.024982 -0.416199 0.060291
v -0.060299 -0.416198 -0.024965
v -0.060292 -0.416198 0.024984
v -0.024967 -0.416199 0.060298
v -0.024985 -0.416199 -0.060290
v 0.024982 -0.416199 0.060291
v 0.024964 -0.416199 -0.060298
v 0.060297 -0.416199 0.024966
v 0.060289 -0.416199 -0.024983
v 0.085649 -0.052297 0.012824
v 0.131661 -0.057234 0.007866
v 0.131659 -0.057234 -0.007906
v 0.085645 -0.052297 -0.012850
v -0.085649 -0.052297 -0.012824
v -0.131662 -0.057234 -0.007866
v -0.131659 -0.057234 0.007906
v -0.085645 -0.052297 0.012850
v 0.085645 -0.052297 -0.012850
v 0.131659 -0.057234 -0.007906
v 0.131659 -0.017824 -0.007906
v 0.085645 0.122771 -0.012850
v -0.083140 0.183923 -0.034423
v -0.085648 0.122772 -0.012824
v -0.085649 -0.052297 -0.012824
v -0.060299 -0.416198 -0.024965
v -0.034448 0.183923 -0.083130
v -0.049701 0.315598 -0.020579
v -0.020592 0.315598 -0.049696
v -0.024985 -0.416199 -0.060290
v -0.012849 0.122772 -0.085645
v -0.012850 -0.052297 -0.085645
v 0.024982 -0.416199 0.060291
v 0.012850 -0.052297 0.085645
v 0.012850 0.122772 0.085645
v 0.034449 0.183923 0.083130
v 0.060297 -0.416199 0.024966
v 0.083141 0.183922 0.034423
v 0.085649 -0.052297 0.012824
v 0.085649 0.122771 0.012824
v 0.049703 0.315598 0.020578
v 0.020594 0.315598 0.049695
v -0.034423 0.183923 0.083140
v -0.012824 0.122772 0.085649
v -0.012824 -0.052297 0.085649
v -0.024967 -0.416199 0.060298
v -0.083130 0.183923 0.034448
v -0.020578 0.315598 0.049701
v -0.049695 0.315599 0.020593
v -0.060292 -0.416198 0.024984
v -0.085645 0.122772 0.012850
v -0.085645 -0.052297 0.012850
v 0.060297 -0.416199 0.024966
v 0.085649 -0.052297 0.012824
v 0.085645 -0.052297 -0.012850
v 0.060289 -0.416199 -0.024983
v 0.024964 -0.416199 -0.060298
v 0.012824 -0.052297 -0.085649
v -0.012850 -0.052297 -0.085645
v -0.024985 -0.416199 -0.060290
v -0.060299 -0.416198 -0.024965
v -0.085649 -0.052297 -0.012824
v -0.085645 -0.052297 0.012850
v -0.060292 -0.416198 0.024984
v 0.007905 -0.057234 0.131659
v -0.007866 -0.057234 0.131661
v -0.007866 -0.017823 0.131661
v 0.007905 -0.017823 0.131659
v -0.131659 -0.057234 0.007906
v -0.131662 -0.057234 -0.007866
v -0.131661 -0.017823 -0.007866
v -0.131659 -0.017823 0.007906
v -0.007906 -0.057234 -0.131659
v 0.007866 -0.057234 -0.131661
v 0.007866 -0.017823 -0.131661
v -0.007906 -0.017823 -0.131659
v 0.131659 -0.057234 -0.007906
v 0.131661 -0.057234 0.007866
v 0.131661 -0.017824 0.007866
v 0.131659 -0.017824 -0.007906
v 0.085645 0.122771 -0.012850
v 0.131659 -0.017824 -0.007906
v 0.131661 -0.017824 0.007866
v 0.085649 0.122771 0.012824
v 0.083131 0.183922 -0.034448
v 0.083141 0.183922 0.034423
v 0.049696 0.315598 -0.020594
v 0.049703 0.315598 0.020578
v -0.085648 0.122772 -0.012824
v -0.131661 -0.017823 -0.007866
v -0.131662 -0.057234 -0.007866
v -0.085649 -0.052297 -0.012824
v -0.012824 -0.052297 0.085649
v -0.007866 -0.057234 0.131661
v 0.007905 -0.057234 0.131659
v 0.012850 -0.052297 0.085645
v 0.085649 0.122771 0.012824
v 0.131661 -0.017824 0.007866
v 0.131661 -0.057234 0.007866
v 0.085649 -0.052297 0.012824
v -0.012850 -0.052297 -0.085645
v -0.007906 -0.057234 -0.131659
v -0.007906 -0.017823 -0.131659
v -0.012849 0.122772 -0.085645
v 0.012850 0.122772 0.085645
v 0.007905 -0.017823 0.131659
v -0.007866 -0.017823 0.131661
v -0.012824 0.122772 0.085649
v 0.034449 0.183923 0.083130
v -0.034423 0.183923 0.083140
v 0.020594 0.315598 0.049695
v -0.020578 0.315598 0.049701
v 0.012824 -0.052297 -0.085649
v 0.007866 -0.057234 -0.131661
v -0.007906 -0.057234 -0.131659
v -0.012850 -0.052297 -0.085645
v 0.012850 -0.052297 0.085645
v 0.007905 -0.057234 0.131659
v 0.007905 -0.017823 0.131659
v 0.012850 0.122772 0.085645
v -0.012849 0.122772 -0.085645
v -0.007906 -0.017823 -0.131659
v 0.007866 -0.017823 -0.131661
v 0.012825 0.122772 -0.085649
v -0.034448 0.183923 -0.083130
v 0.034424 0.183922 -0.083140
v -0.020592 0.315598 -0.049696
v 0.020579 0.315598 -0.049702
v -0.012824 0.122772 0.085649
v -0.007866 -0.017823 0.131661
v -0.007866 -0.057234 0.131661
v -0.012824 -0.052297 0.085649
v 0.012825 0.122772 -0.085649
v 0.007866 -0.017823 -0.131661
v 0.007866 -0.057234 -0.131661
v 0.012824 -0.052297 -0.085649
v -0.085645 -0.052297 0.012850
v -0.131659 -0.057234 0.007906
v -0.131659 -0.017823 0.007906
v -0.085645 0.122772 0.012850
v -0.020578 0.315598 0.049701
v -0.049695 0.315599 0.020593
v -0.049701 0.315598 -0.020579
v 0.020594 0.315598 0.049695
v -0.020592 0.315598 -0.049696
v 0.049703 0.315598 0.020578
v 0.020579 0.315598 -0.049702
v 0.049696 0.315598 -0.020594
vn 0.3048 -0.0458 -0.9513
vn 0.2087 0.0769 -0.9750
vn 0.4041 0.1261 -0.9060
vn 0.3900 -0.0574 -0.9190
vn 0.9109 0.1430 -0.3872
vn 0.3690 0.2596 -0.8924
vn 0.8906 0.2651 -0.3695
vn 0.9189 -0.0574 -0.3903
vn 0.9746 0.0763 -0.2106
vn 0.9516 -0.0458 -0.3040
vn -0.8909 0.2651 0.3688
vn -0.8907 0.2652 -0.3693
vn -0.9059 0.1261 -0.4043
vn -0.9059 0.1261 0.4042
vn -0.9748 0.0780 -0.2090
vn -0.9747 0.0780 0.2095
vn -0.9873 0.1590 0.0003
vn 0.3034 -0.0459 0.9518
vn -0.3027 -0.0460 0.9520
vn -0.3891 -0.0574 0.9194
vn 0.3892 -0.0574 0.9193
vn -0.0000 -1.0000 -0.0000
vn -0.1073 -0.9941 0.0174
vn -0.1239 -0.9923 -0.0013
vn -0.1236 -0.9923 0.0034
vn 0.1072 -0.9941 -0.0174
vn 0.1239 -0.9923 0.0013
vn 0.1236 -0.9923 -0.0034
vn 0.1271 -0.0016 -0.9919
vn 0.1271 -0.0000 -0.9919
vn 0.1058 0.0204 -0.9942
vn -0.9513 -0.0458 -0.3048
vn -0.9750 0.0769 -0.2087
vn -0.9060 0.1261 -0.4041
vn -0.9190 -0.0574 -0.3900
vn -0.3872 0.1430 -0.9109
vn -0.8924 0.2596 -0.3690
vn -0.3695 0.2651 -0.8906
vn -0.3903 -0.0574 -0.9189
vn -0.2106 0.0763 -0.9746
vn -0.3040 -0.0458 -0.9516
vn 0.2106 0.0763 0.9746
vn 0.3040 -0.0458 0.9516
vn 0.3903 -0.0574 0.9189
vn 0.3872 0.1430 0.9109
vn 0.9190 -0.0574 0.3900
vn 0.9060 0.1261 0.4041
vn 0.9513 -0.0458 0.3048
vn 0.9750 0.0769 0.2087
vn 0.8924 0.2596 0.3690
vn 0.3695 0.2651 0.8906
vn -0.3048 -0.0458 0.9513
vn -0.2087 0.0769 0.9750
vn -0.4041 0.1261 0.9060
vn -0.3900 -0.0574 0.9190
vn -0.9109 0.1430 0.3872
vn -0.3690 0.2596 0.8924
vn -0.8906 0.2651 0.3695
vn -0.9189 -0.0574 0.3903
vn -0.9746 0.0763 0.2106
vn -0.9516 -0.0458 0.3040
vn 0.9518 -0.0459 -0.3034
vn 0.9520 -0.0460 0.3027
vn 0.9194 -0.0574 0.3891
vn 0.9193 -0.0574 -0.3892
vn -0.3034 -0.0459 -0.9518
vn 0.3027 -0.0460 -0.9520
vn 0.3891 -0.0574 -0.9194
vn -0.3892 -0.0574 -0.9193
vn -0.9518 -0.0459 0.3034
vn -0.9520 -0.0460 -0.3027
vn -0.9194 -0.0574 -0.3891
vn -0.9193 -0.0574 0.3892
vn -0.0404 0.1541 0.9872
vn 0.0137 -0.0000 0.9999
vn 0.0137 0.0006 0.9999
vn 0.0003 0.1594 0.9872
vn -0.9872 0.1541 -0.0404
vn -0.9999 -0.0000 0.0137
vn -0.9999 0.0006 0.0137
vn -0.9872 0.1594 0.0003
vn 0.0404 0.1541 -0.9872
vn -0.0137 -0.0000 -0.9999
vn -0.0137 0.0006 -0.9999
vn -0.0003 0.1594 -0.9872
vn 0.9872 0.1541 0.0404
vn 0.9999 -0.0000 -0.0137
vn 0.9999 0.0006 -0.0137
vn 0.9872 0.1594 -0.0003
vn 0.9873 0.1590 -0.0003
vn 0.9747 0.0780 -0.2095
vn 0.9748 0.0780 0.2090
vn 0.9059 0.1261 -0.4042
vn 0.9059 0.1261 0.4043
vn 0.8909 0.2651 -0.3688
vn 0.8907 0.2652 0.3693
vn -0.1071 -0.0000 -0.9942
vn -0.0174 -0.9941 -0.1072
vn 0.0014 -0.9923 -0.1239
vn -0.0034 -0.9923 -0.1236
vn 0.0013 -0.9923 -0.1239
vn 0.1071 -0.0000 0.9942
vn -0.9919 -0.0016 -0.1271
vn -0.9919 -0.0000 -0.1271
vn -0.9942 0.0204 -0.1058
vn 0.0003 0.1590 0.9873
vn 0.2095 0.0780 0.9747
vn -0.2090 0.0780 0.9748
vn 0.4042 0.1261 0.9059
vn -0.4043 0.1261 0.9059
vn 0.3688 0.2651 0.8909
vn -0.3693 0.2652 0.8907
vn 0.0174 -0.9941 0.1072
vn -0.0014 -0.9923 0.1239
vn 0.0034 -0.9923 0.1236
vn -0.0013 -0.9923 0.1239
vn 0.9919 -0.0016 0.1271
vn 0.9919 -0.0000 0.1271
vn 0.9942 0.0204 0.1058
vn -0.0003 0.1590 -0.9873
vn -0.2095 0.0780 -0.9747
vn 0.2090 0.0780 -0.9748
vn -0.4042 0.1261 -0.9059
vn 0.4043 0.1261 -0.9059
vn -0.3688 0.2651 -0.8909
vn 0.3693 0.2652 -0.8907
vn -0.9942 -0.0000 0.1071
vn 0.9942 -0.0000 -0.1071
vn -0.1271 -0.0016 0.9919
vn -0.1271 -0.0000 0.9919
vn -0.1058 0.0204 0.9942
vn -0.0000 1.0000 -0.0000
vt 0.375000 0.500000
vt 0.375000 1.000000
vt 0.250000 1.000000
vt 0.250000 0.500000
vt 0.489990 0.250000
vt 0.419678 0.080322
vt 0.750000 0.489990
vt 0.919922 0.419678
vt 0.990234 0.250000
vt 0.919922 0.080322
vt 0.750000 0.010002
vt 0.580078 0.080322
vt 0.580078 0.419678
vt 0.509766 0.250000
vt 0.625000 0.500000
vt 0.625000 1.000000
vt 0.500000 1.000000
vt 0.500000 0.500000
vt 0.000000 1.000000
vt 0.000000 0.500000
vt 0.125000 0.500000
vt 0.125000 1.000000
vt 0.875000 0.500000
vt 0.875000 1.000000
vt 0.750000 1.000000
vt 0.750000 0.500000
vt 1.000000 0.500000
vt 1.000000 1.000000
vt 0.080322 0.419678
vt 0.010002 0.250000
vt 0.419678 0.419678
vt 0.250000 0.489990
vt 0.080322 0.080322
vt 0.250000 0.010002
s 1
usemtl RocketTex
f 3/1/1 2/2/2 1/2/3
f 4/1/4 3/1/1 1/2/3
f 1/2/3 5/3/5 4/1/4
f 1/2/3 6/2/6 5/3/5
f 6/2/6 7/3/7 5/3/5
f 5/3/5 8/4/8 4/1/4
f 5/3/5 9/3/9 8/4/8
f 9/3/9 10/4/10 8/4/8
f 13/5/11 12/6/12 11/6/13
f 14/5/14 13/5/11 11/6/13
f 11/6/13 15/6/15 14/5/14
f 15/6/15 16/5/16 14/5/14
f 15/6/15 17/6/17 16/5/16
f 17/6/17 18/5/17 16/5/16
f 21/7/18 20/8/19 19/8/20
f 22/7/21 21/7/18 19/8/20
f 25/8/22 24/9/22 23/10/22
f 23/10/22 26/11/22 25/8/22
f 26/11/22 27/7/22 25/8/22
f 26/11/22 28/12/22 27/7/22
f 28/12/22 29/13/22 27/7/22
f 28/12/22 30/14/22 29/13/22
f 33/14/23 32/13/24 31/13/25
f 34/14/24 33/14/23 31/13/25
f 37/9/26 36/10/27 35/10/28
f 38/9/27 37/9/26 35/10/28
f 41/3/29 40/4/30 39/4/31
f 42/3/30 41/3/29 39/4/31
f 45/15/32 44/16/33 43/16/34
f 46/15/35 45/15/32 43/16/34
f 43/16/34 47/17/36 46/15/35
f 43/16/34 48/16/37 47/17/36
f 48/16/37 49/17/38 47/17/36
f 47/17/36 50/18/39 46/15/35
f 47/17/36 51/17/40 50/18/39
f 51/17/40 52/18/41 50/18/39
f 55/19/42 54/20/43 53/20/44
f 56/19/45 55/19/42 53/20/44
f 56/19/45 53/20/44 57/21/46
f 58/22/47 56/19/45 57/21/46
f 57/21/46 59/21/48 58/22/47
f 59/21/48 60/22/49 58/22/47
f 58/22/47 61/22/50 56/19/45
f 61/22/50 62/19/51 56/19/45
f 65/23/52 64/24/53 63/24/54
f 66/23/55 65/23/52 63/24/54
f 63/24/54 67/25/56 66/23/55
f 63/24/54 68/24/57 67/25/56
f 68/24/57 69/25/58 67/25/56
f 67/25/56 70/26/59 66/23/55
f 67/25/56 71/25/60 70/26/59
f 71/25/60 72/26/61 70/26/59
f 75/14/62 74/13/63 73/13/64
f 76/14/65 75/14/62 73/13/64
f 79/11/66 78/12/67 77/12/68
f 80/11/69 79/11/66 77/12/68
f 83/9/70 82/10/71 81/10/72
f 84/9/73 83/9/70 81/10/72
f 87/24/74 86/23/75 85/27/76
f 88/28/77 87/24/74 85/27/76
f 91/16/78 90/15/79 89/26/80
f 92/25/81 91/16/78 89/26/80
f 95/2/82 94/1/83 93/18/84
f 96/17/85 95/2/82 93/18/84
f 99/22/86 98/21/87 97/4/88
f 100/3/89 99/22/86 97/4/88
f 103/29/90 102/30/90 101/30/91
f 104/29/92 103/29/90 101/30/91
f 104/29/92 101/30/91 105/30/93
f 106/29/94 104/29/92 105/30/93
f 105/30/93 107/30/95 106/29/94
f 107/30/95 108/29/96 106/29/94
f 111/15/97 110/16/97 109/16/97
f 112/15/97 111/15/97 109/16/97
f 115/7/98 114/8/99 113/8/100
f 116/7/101 115/7/98 113/8/100
f 119/21/102 118/22/102 117/22/102
f 120/21/102 119/21/102 117/22/102
f 123/17/103 122/18/104 121/18/105
f 124/17/104 123/17/103 121/18/105
f 127/31/106 126/32/106 125/32/107
f 128/31/108 127/31/106 125/32/107
f 128/31/108 125/32/107 129/32/109
f 130/31/110 128/31/108 129/32/109
f 129/32/109 131/32/111 130/31/110
f 131/32/111 132/31/112 130/31/110
f 135/11/113 134/12/114 133/12/115
f 136/11/116 135/11/113 133/12/115
f 139/19/117 138/20/118 137/20/119
f 140/19/118 139/19/117 137/20/119
f 143/33/120 142/34/120 141/34/121
f 144/33/122 143/33/120 141/34/121
f 144/33/122 141/34/121 145/34/123
f 146/33/124 144/33/122 145/34/123
f 145/34/123 147/34/125 146/33/124
f 147/34/125 148/33/126 146/33/124
f 151/23/127 150/24/127 149/24/127
f 152/23/127 151/23/127 149/24/127
f 155/1/128 154/2/128 153/2/128
f 156/1/128 155/1/128 153/2/128
f 159/25/129 158/26/130 157/26/131
f 160/25/130 159/25/129 157/26/131
f 163/6/132 162/5/132 161/31/132
f 161/31/132 164/32/132 163/6/132
f 164/32/132 165/34/132 163/6/132
f 164/32/132 166/29/132 165/34/132
f 166/29/132 167/33/132 165/34/132
f 166/29/132 168/30/132 167/33/132
