# Blender 4.0.2
# www.blender.org
mtllib mouse bites.mtl
o Cylinder
v 0.000000 0.169984 -0.704189
v 0.000000 2.100000 -0.704189
v 0.000000 0.169984 0.704189
v -0.352095 0.169984 0.609846
v -0.609846 0.169984 0.352095
v -0.704189 0.169984 0.000000
v -0.704189 2.100000 0.000000
v -0.609846 0.169984 -0.352095
v -0.609846 2.100000 -0.352095
v -0.352095 0.169984 -0.609846
v -0.352095 2.100000 -0.609846
v 0.000000 2.100000 0.704189
v -0.352095 2.100000 0.609846
v -0.609846 2.100000 0.352095
v 0.000000 2.262208 -0.634183
v 0.000000 2.262208 0.634183
v -0.317092 2.262208 0.549219
v -0.549219 2.262208 0.317092
v -0.634183 2.262208 0.000000
v -0.549219 2.262208 -0.317092
v -0.317092 2.262208 -0.549219
v 0.000000 2.472160 -0.302847
v 0.000000 2.472160 0.302847
v -0.151424 2.472160 0.262273
v -0.262273 2.472160 0.151424
v -0.302847 2.472160 0.000000
v -0.262273 2.472160 -0.151424
v -0.151424 2.472160 -0.262273
v 0.000000 2.663450 -0.302847
v 0.000000 2.663450 0.302847
v -0.151424 2.663450 0.262273
v -0.262273 2.663450 0.151424
v -0.302847 2.663450 0.000000
v -0.262273 2.663450 -0.151424
v -0.151424 2.663450 -0.262273
v 0.000000 2.724102 -0.481740
v 0.000000 2.724102 0.481740
v -0.240870 2.724102 0.417199
v -0.417199 2.724102 0.240870
v -0.481740 2.724102 -0.000000
v -0.417199 2.724102 -0.240870
v -0.240870 2.724102 -0.417199
v 0.000000 3.255981 -0.481740
v 0.000000 3.255981 0.481740
v -0.240870 3.255981 0.417199
v -0.417199 3.255981 0.240870
v -0.481740 3.255981 0.000000
v -0.417199 3.255981 -0.240870
v -0.240870 3.255981 -0.417199
v 0.000000 3.316634 -0.389473
v 0.000000 3.316634 0.389473
v -0.194737 3.316634 0.337294
v -0.337294 3.316634 0.194736
v -0.389473 3.316634 0.000000
v -0.337294 3.316634 -0.194736
v -0.194737 3.316634 -0.337294
v 0.000000 0.118662 -0.624089
v 0.000000 0.118662 0.624089
v -0.312045 0.118662 0.540477
v -0.540477 0.118662 0.312045
v -0.624089 0.118662 -0.000000
v -0.540477 0.118662 -0.312045
v -0.312045 0.118662 -0.540477
v -0.194737 3.269799 -0.000000
v 0.000000 3.316677 -0.323975
v 0.000000 3.316677 0.323975
v -0.161987 3.316677 0.280570
v -0.280570 3.316677 0.161987
v -0.323975 3.316677 -0.000000
v -0.280570 3.316677 -0.161987
v -0.161987 3.316677 -0.280570
v 0.000000 3.269799 -0.000000
v 0.000000 3.269799 0.194736
v -0.168647 3.269799 -0.097368
v -0.097368 3.269799 0.168647
v -0.097368 3.269799 -0.168647
v -0.168647 3.269799 0.097368
v 0.000000 3.269799 -0.194736
v 0.000000 0.118662 -0.000000
v 0.352095 0.169984 0.609846
v 0.609846 0.169984 0.352095
v 0.704189 0.169984 0.000000
v 0.704189 2.100000 0.000000
v 0.609846 0.169984 -0.352095
v 0.609846 2.100000 -0.352095
v 0.352095 0.169984 -0.609846
v 0.352095 2.100000 -0.609846
v 0.352095 2.100000 0.609846
v 0.609846 2.100000 0.352095
v 0.317092 2.262208 0.549219
v 0.549219 2.262208 0.317092
v 0.634183 2.262208 0.000000
v 0.549219 2.262208 -0.317092
v 0.317092 2.262208 -0.549219
v 0.151424 2.472160 0.262273
v 0.262273 2.472160 0.151424
v 0.302847 2.472160 0.000000
v 0.262273 2.472160 -0.151424
v 0.151424 2.472160 -0.262273
v 0.151424 2.663450 0.262273
v 0.262273 2.663450 0.151424
v 0.302847 2.663450 0.000000
v 0.262273 2.663450 -0.151424
v 0.151424 2.663450 -0.262273
v 0.240870 2.724102 0.417199
v 0.417199 2.724102 0.240870
v 0.481740 2.724102 -0.000000
v 0.417199 2.724102 -0.240870
v 0.240870 2.724102 -0.417199
v 0.240870 3.255981 0.417199
v 0.417199 3.255981 0.240870
v 0.481740 3.255981 0.000000
v 0.417199 3.255981 -0.240870
v 0.240870 3.255981 -0.417199
v 0.194737 3.316634 0.337294
v 0.337294 3.316634 0.194736
v 0.389473 3.316634 0.000000
v 0.337294 3.316634 -0.194736
v 0.194737 3.316634 -0.337294
v 0.312045 0.118662 0.540477
v 0.540477 0.118662 0.312045
v 0.624089 0.118662 -0.000000
v 0.540477 0.118662 -0.312045
v 0.312045 0.118662 -0.540477
v 0.194737 3.269799 -0.000000
v 0.161987 3.316677 0.280570
v 0.280570 3.316677 0.161987
v 0.323975 3.316677 -0.000000
v 0.280570 3.316677 -0.161987
v 0.161987 3.316677 -0.280570
v 0.168647 3.269799 -0.097368
v 0.097368 3.269799 0.168647
v 0.097368 3.269799 -0.168647
v 0.168647 3.269799 0.097368
vn -0.0000 -0.3812 0.9245
vn -0.0000 0.1866 0.9824
vn -0.4912 0.1866 0.8508
vn -0.4622 -0.3812 0.8006
vn -0.8508 0.1866 0.4912
vn -0.8006 -0.3812 0.4622
vn -0.9824 0.1866 -0.0000
vn -0.9245 -0.3812 -0.0000
vn -0.8508 0.1866 -0.4912
vn -0.8006 -0.3812 -0.4622
vn -0.4912 0.1866 -0.8508
vn -0.4622 -0.3812 -0.8006
vn -0.0000 0.1866 -0.9824
vn -0.0000 -0.3812 -0.9245
vn -0.1678 -0.9420 0.2906
vn -0.0000 -0.9420 0.3356
vn -0.0000 0.5988 -0.8009
vn -0.4005 0.5988 -0.6936
vn -0.4447 0.4572 -0.7702
vn -0.0000 0.4572 -0.8894
vn -0.6936 0.5988 0.4005
vn -0.8009 0.5988 -0.0000
vn -0.6936 0.5988 -0.4005
vn -0.0000 0.5988 0.8009
vn -0.4005 0.5988 0.6936
vn -0.7702 0.4572 0.4447
vn -0.8894 0.4572 -0.0000
vn -0.7702 0.4572 -0.4447
vn -0.0000 0.4572 0.8894
vn -0.4447 0.4572 0.7702
vn -0.4205 -0.5409 -0.7284
vn -0.0000 -0.5409 -0.8411
vn -0.7284 -0.5409 0.4205
vn -0.8411 -0.5409 -0.0000
vn -0.7284 -0.5409 -0.4205
vn -0.0000 -0.5409 0.8411
vn -0.4205 -0.5409 0.7284
vn -0.7765 -0.4427 0.4483
vn -0.4483 -0.4427 0.7765
vn -0.4629 0.3781 0.8018
vn -0.8018 0.3781 0.4629
vn -0.4483 -0.4427 -0.7765
vn -0.0000 -0.4427 -0.8966
vn -0.8966 -0.4427 -0.0000
vn -0.7765 -0.4427 -0.4483
vn -0.0000 -0.4427 0.8966
vn -0.4629 0.3781 -0.8018
vn -0.0000 0.3781 -0.9258
vn -0.9258 0.3781 -0.0000
vn -0.8018 0.3781 -0.4629
vn -0.0000 0.3781 0.9258
vn -0.1714 0.9394 0.2969
vn -0.2969 0.9394 0.1714
vn -0.1714 0.9394 -0.2969
vn -0.0000 0.9394 -0.3428
vn -0.3428 0.9394 -0.0000
vn -0.2969 0.9394 -0.1714
vn -0.0000 0.9394 0.3428
vn -0.0000 -0.9420 -0.3356
vn -0.1678 -0.9420 -0.2906
vn -0.2906 -0.9420 -0.1678
vn -0.3356 -0.9420 -0.0000
vn -0.2906 -0.9420 0.1678
vn 0.1271 0.9892 0.0734
vn 0.0734 0.9892 0.1271
vn -0.0000 0.9892 -0.1467
vn 0.0734 0.9892 -0.1271
vn 0.1467 0.9892 -0.0000
vn 0.1271 0.9892 -0.0734
vn -0.0000 0.9892 0.1467
vn 0.1019 0.9790 0.1765
vn -0.0000 0.9790 0.2038
vn 0.1765 0.9790 0.1019
vn 0.2038 0.9790 -0.0000
vn 0.1765 0.9790 -0.1019
vn 0.1019 0.9790 -0.1765
vn -0.0000 0.9790 -0.2038
vn -0.0000 1.0000 -0.0000
vn -0.0000 -1.0000 -0.0000
vn 0.4622 -0.3812 0.8006
vn 0.4912 0.1866 0.8508
vn 0.8006 -0.3812 0.4622
vn 0.8508 0.1866 0.4912
vn 0.9245 -0.3812 -0.0000
vn 0.9824 0.1866 -0.0000
vn 0.8006 -0.3812 -0.4622
vn 0.8508 0.1866 -0.4912
vn 0.4622 -0.3812 -0.8006
vn 0.4912 0.1866 -0.8508
vn 0.1678 -0.9420 0.2906
vn 0.4447 0.4572 -0.7702
vn 0.4005 0.5988 -0.6936
vn 0.8009 0.5988 -0.0000
vn 0.6936 0.5988 0.4005
vn 0.6936 0.5988 -0.4005
vn 0.4005 0.5988 0.6936
vn 0.8894 0.4572 -0.0000
vn 0.7702 0.4572 0.4447
vn 0.7702 0.4572 -0.4447
vn 0.4447 0.4572 0.7702
vn 0.4205 -0.5409 -0.7284
vn 0.8411 -0.5409 -0.0000
vn 0.7284 -0.5409 0.4205
vn 0.7284 -0.5409 -0.4205
vn 0.4205 -0.5409 0.7284
vn 0.7765 -0.4427 0.4483
vn 0.8018 0.3781 0.4629
vn 0.4629 0.3781 0.8018
vn 0.4483 -0.4427 0.7765
vn 0.4483 -0.4427 -0.7765
vn 0.8966 -0.4427 -0.0000
vn 0.7765 -0.4427 -0.4483
vn 0.4629 0.3781 -0.8018
vn 0.9258 0.3781 -0.0000
vn 0.8018 0.3781 -0.4629
vn 0.2969 0.9394 0.1714
vn 0.1714 0.9394 0.2969
vn 0.1714 0.9394 -0.2969
vn 0.3428 0.9394 -0.0000
vn 0.2969 0.9394 -0.1714
vn 0.1678 -0.9420 -0.2906
vn 0.2906 -0.9420 -0.1678
vn 0.3356 -0.9420 -0.0000
vn 0.2906 -0.9420 0.1678
vn -0.0734 0.9892 0.1271
vn -0.1271 0.9892 0.0734
vn -0.0734 0.9892 -0.1271
vn -0.1467 0.9892 -0.0000
vn -0.1271 0.9892 -0.0734
vn -0.1019 0.9790 0.1765
vn -0.1765 0.9790 0.1019
vn -0.2038 0.9790 -0.0000
vn -0.1765 0.9790 -0.1019
vn -0.1019 0.9790 -0.1765
vt 0.861201 0.074547
vt 0.877105 0.608958
vt 0.826299 0.609391
vt 0.810395 0.074980
vt 0.687495 0.610574
vt 0.671590 0.076163
vt 0.497884 0.612191
vt 0.481980 0.077779
vt 0.308273 0.613807
vt 0.292369 0.079395
vt 0.169469 0.614990
vt 0.153564 0.080578
vt 0.118663 0.615423
vt 0.102758 0.081011
vt 0.772615 0.061088
vt 0.817642 0.060704
vt 0.157699 0.660016
vt 0.203454 0.659626
vt 0.359711 0.716444
vt 0.337861 0.716630
vt 0.669981 0.655650
vt 0.499221 0.657105
vt 0.328460 0.658561
vt 0.840742 0.654194
vt 0.794987 0.654584
vt 0.582496 0.714545
vt 0.500951 0.715240
vt 0.419406 0.715935
vt 0.664041 0.713850
vt 0.642191 0.714036
vt 0.361287 0.769411
vt 0.339437 0.769597
vt 0.584072 0.767512
vt 0.502527 0.768207
vt 0.420982 0.768902
vt 0.665617 0.766817
vt 0.643767 0.767003
vt 0.632741 0.783896
vt 0.727698 0.783087
vt 0.732081 0.930361
vt 0.637124 0.931170
vt 0.278356 0.786916
vt 0.253235 0.794514
vt 0.503027 0.785002
vt 0.373313 0.786107
vt 0.762454 0.782790
vt 0.282739 0.934191
vt 0.247982 0.934487
vt 0.507410 0.932276
vt 0.377696 0.933381
vt 0.766837 0.930065
vt 0.689550 0.947522
vt 0.612779 0.948176
vt 0.326270 0.950618
vt 0.298170 0.950858
vt 0.507910 0.949070
vt 0.403040 0.949964
vt 0.717649 0.947283
vt 0.145471 0.066433
vt 0.190498 0.066049
vt 0.313514 0.065001
vt 0.481557 0.063569
vt 0.649599 0.062136
vt 0.420676 0.949826
vt 0.356817 0.950370
vt 0.682377 0.947595
vt 0.659003 0.947794
vt 0.507910 0.949082
vt 0.595144 0.948339
vt 0.333442 0.950569
vt 0.416704 0.936876
vt 0.402654 0.936996
vt 0.455089 0.936549
vt 0.507524 0.936102
vt 0.559959 0.935655
vt 0.598343 0.935328
vt 0.612393 0.935208
vt 0.098861 0.086018
vt 0.149632 0.085551
vt 0.166842 0.621102
vt 0.116071 0.621570
vt 0.288341 0.084274
vt 0.305551 0.619826
vt 0.477821 0.082530
vt 0.495031 0.618082
vt 0.667301 0.080787
vt 0.684511 0.616338
vt 0.806010 0.079510
vt 0.823220 0.615062
vt 0.856780 0.079043
vt 0.873990 0.614594
vt 0.141509 0.071380
vt 0.186505 0.070966
vt 0.837763 0.659952
vt 0.661327 0.719851
vt 0.639492 0.720052
vt 0.792039 0.660372
vt 0.496477 0.663092
vt 0.325834 0.664663
vt 0.667121 0.661522
vt 0.200915 0.665813
vt 0.155192 0.666233
vt 0.498349 0.721351
vt 0.416861 0.722101
vt 0.579838 0.720601
vt 0.357207 0.722650
vt 0.335372 0.722851
vt 0.663033 0.772931
vt 0.641198 0.773132
vt 0.500055 0.774431
vt 0.418567 0.775181
vt 0.581544 0.773681
vt 0.358913 0.775730
vt 0.337078 0.775931
vt 0.370972 0.792454
vt 0.375715 0.940043
vt 0.280823 0.940916
vt 0.276080 0.793328
vt 0.759845 0.788875
vt 0.725112 0.789195
vt 0.500596 0.791261
vt 0.630220 0.790068
vt 0.241348 0.793647
vt 0.764587 0.936464
vt 0.729855 0.936784
vt 0.505339 0.938850
vt 0.634963 0.937657
vt 0.246090 0.941236
vt 0.401082 0.956645
vt 0.324365 0.957351
vt 0.715475 0.953751
vt 0.687394 0.954010
vt 0.505880 0.955680
vt 0.610677 0.954716
vt 0.296285 0.957609
vt 0.768221 0.065613
vt 0.813217 0.065198
vt 0.645290 0.066744
vt 0.477363 0.068289
vt 0.309436 0.069835
vt 0.656869 0.954303
vt 0.593054 0.954890
vt 0.354891 0.957082
vt 0.331533 0.957297
vt 0.505880 0.955692
vt 0.418707 0.956495
vt 0.680227 0.954088
vt 0.610259 0.941720
vt 0.596219 0.941849
vt 0.557861 0.942202
vt 0.505462 0.942685
vt 0.453063 0.943167
vt 0.414705 0.943520
vt 0.400665 0.943649
s 1
usemtl mouse_bites
f 3/1/1 12/2/2 13/3/3 4/4/4
f 4/4/4 13/3/3 14/5/5 5/6/6
f 5/6/6 14/5/5 7/7/7 6/8/8
f 6/8/8 7/7/7 9/9/9 8/10/10
f 8/10/10 9/9/9 11/11/11 10/12/12
f 10/12/12 11/11/11 2/13/13 1/14/14
f 3/1/1 4/4/4 59/15/15 58/16/16
f 15/17/17 21/18/18 28/19/19 22/20/20
f 7/7/7 14/5/5 18/21/21 19/22/22
f 9/9/9 7/7/7 19/22/22 20/23/23
f 13/3/3 12/2/2 16/24/24 17/25/25
f 11/11/11 9/9/9 20/23/23 21/18/18
f 14/5/5 13/3/3 17/25/25 18/21/21
f 2/13/13 11/11/11 21/18/18 15/17/17
f 19/22/22 18/21/21 25/26/26 26/27/27
f 20/23/23 19/22/22 26/27/27 27/28/28
f 17/25/25 16/24/24 23/29/29 24/30/30
f 21/18/18 20/23/23 27/28/28 28/19/19
f 18/21/21 17/25/25 24/30/30 25/26/26
f 22/20/20 28/19/19 35/31/31 29/32/32
f 26/27/27 25/26/26 32/33/33 33/34/34
f 27/28/28 26/27/27 33/34/34 34/35/35
f 24/30/30 23/29/29 30/36/36 31/37/37
f 28/19/19 27/28/28 34/35/35 35/31/31
f 25/26/26 24/30/30 31/37/37 32/33/33
f 39/38/38 38/39/39 45/40/40 46/41/41
f 29/32/32 35/31/31 42/42/42 36/43/43
f 33/34/34 32/33/33 39/38/38 40/44/44
f 34/35/35 33/34/34 40/44/44 41/45/45
f 31/37/37 30/36/36 37/46/46 38/39/39
f 35/31/31 34/35/35 41/45/45 42/42/42
f 32/33/33 31/37/37 38/39/39 39/38/38
f 36/43/43 42/42/42 49/47/47 43/48/48
f 40/44/44 39/38/38 46/41/41 47/49/49
f 41/45/45 40/44/44 47/49/49 48/50/50
f 38/39/39 37/46/46 44/51/51 45/40/40
f 42/42/42 41/45/45 48/50/50 49/47/47
f 46/41/41 45/40/40 52/52/52 53/53/53
f 43/48/48 49/47/47 56/54/54 50/55/55
f 47/49/49 46/41/41 53/53/53 54/56/56
f 48/50/50 47/49/49 54/56/56 55/57/57
f 45/40/40 44/51/51 51/58/58 52/52/52
f 49/47/47 48/50/50 55/57/57 56/54/54
f 10/12/12 1/14/14 57/59/59 63/60/60
f 8/10/10 10/12/12 63/60/60 62/61/61
f 6/8/8 8/10/10 62/61/61 61/62/62
f 5/6/6 6/8/8 61/62/62 60/63/63
f 4/4/4 5/6/6 60/63/63 59/15/15
f 56/54/54 55/57/57 70/64/64 71/65/65
f 52/52/52 51/58/58 66/66/66 67/67/67
f 55/57/57 54/56/56 69/68/68 70/64/64
f 54/56/56 53/53/53 68/69/69 69/68/68
f 50/55/55 56/54/54 71/65/65 65/70/70
f 53/53/53 52/52/52 67/67/67 68/69/69
f 65/70/70 71/65/65 76/71/71 78/72/72
f 71/65/65 70/64/64 74/73/73 76/71/71
f 70/64/64 69/68/68 64/74/74 74/73/73
f 69/68/68 68/69/69 77/75/75 64/74/74
f 68/69/69 67/67/67 75/76/76 77/75/75
f 67/67/67 66/66/66 73/77/77 75/76/76
f 78/72/72 76/71/71 72/74/78
f 74/73/73 64/74/74 72/74/78
f 77/75/75 75/76/76 72/74/78
f 76/71/71 74/73/73 72/74/78
f 64/74/74 77/75/75 72/74/78
f 75/76/76 73/77/77 72/74/78
f 58/16/16 59/15/15 79/62/79
f 59/15/15 60/63/63 79/62/79
f 60/63/63 61/62/62 79/62/79
f 61/62/62 62/61/61 79/62/79
f 62/61/61 63/60/60 79/62/79
f 63/60/60 57/59/59 79/62/79
f 3/78/1 80/79/80 88/80/81 12/81/2
f 80/79/80 81/82/82 89/83/83 88/80/81
f 81/82/82 82/84/84 83/85/85 89/83/83
f 82/84/84 84/86/86 85/87/87 83/85/85
f 84/86/86 86/88/88 87/89/89 85/87/87
f 86/88/88 1/90/14 2/91/13 87/89/89
f 3/78/1 58/92/16 120/93/90 80/79/80
f 15/94/17 22/95/20 99/96/91 94/97/92
f 83/85/85 92/98/93 91/99/94 89/83/83
f 85/87/87 93/100/95 92/98/93 83/85/85
f 88/80/81 90/101/96 16/102/24 12/81/2
f 87/89/89 94/97/92 93/100/95 85/87/87
f 89/83/83 91/99/94 90/101/96 88/80/81
f 2/91/13 15/94/17 94/97/92 87/89/89
f 92/98/93 97/103/97 96/104/98 91/99/94
f 93/100/95 98/105/99 97/103/97 92/98/93
f 90/101/96 95/106/100 23/107/29 16/102/24
f 94/97/92 99/96/91 98/105/99 93/100/95
f 91/99/94 96/104/98 95/106/100 90/101/96
f 22/95/20 29/108/32 104/109/101 99/96/91
f 97/103/97 102/110/102 101/111/103 96/104/98
f 98/105/99 103/112/104 102/110/102 97/103/97
f 95/106/100 100/113/105 30/114/36 23/107/29
f 99/96/91 104/109/101 103/112/104 98/105/99
f 96/104/98 101/111/103 100/113/105 95/106/100
f 106/115/106 111/116/107 110/117/108 105/118/109
f 29/108/32 36/119/43 109/120/110 104/109/101
f 102/110/102 107/121/111 106/115/106 101/111/103
f 103/112/104 108/122/112 107/121/111 102/110/102
f 100/113/105 105/118/109 37/123/46 30/114/36
f 104/109/101 109/120/110 108/122/112 103/112/104
f 101/111/103 106/115/106 105/118/109 100/113/105
f 36/119/43 43/124/48 114/125/113 109/120/110
f 107/121/111 112/126/114 111/116/107 106/115/106
f 108/122/112 113/127/115 112/126/114 107/121/111
f 105/118/109 110/117/108 44/128/51 37/123/46
f 109/120/110 114/125/113 113/127/115 108/122/112
f 111/116/107 116/129/116 115/130/117 110/117/108
f 43/124/48 50/131/55 119/132/118 114/125/113
f 112/126/114 117/133/119 116/129/116 111/116/107
f 113/127/115 118/134/120 117/133/119 112/126/114
f 110/117/108 115/130/117 51/135/58 44/128/51
f 114/125/113 119/132/118 118/134/120 113/127/115
f 86/88/88 124/136/121 57/137/59 1/90/14
f 84/86/86 123/138/122 124/136/121 86/88/88
f 82/84/84 122/139/123 123/138/122 84/86/86
f 81/82/82 121/140/124 122/139/123 82/84/84
f 80/79/80 120/93/90 121/140/124 81/82/82
f 119/132/118 130/141/125 129/142/126 118/134/120
f 115/130/117 126/143/127 66/144/66 51/135/58
f 118/134/120 129/142/126 128/145/128 117/133/119
f 117/133/119 128/145/128 127/146/129 116/129/116
f 50/131/55 65/147/70 130/141/125 119/132/118
f 116/129/116 127/146/129 126/143/127 115/130/117
f 65/147/70 78/148/72 133/149/130 130/141/125
f 130/141/125 133/149/130 131/150/131 129/142/126
f 129/142/126 131/150/131 125/151/132 128/145/128
f 128/145/128 125/151/132 134/152/133 127/146/129
f 127/146/129 134/152/133 132/153/134 126/143/127
f 126/143/127 132/153/134 73/154/77 66/144/66
f 78/148/72 72/151/78 133/149/130
f 131/150/131 72/151/78 125/151/132
f 134/152/133 72/151/78 132/153/134
f 133/149/130 72/151/78 131/150/131
f 125/151/132 72/151/78 134/152/133
f 132/153/134 72/151/78 73/154/77
f 58/92/16 79/139/79 120/93/90
f 120/93/90 79/139/79 121/140/124
f 121/140/124 79/139/79 122/139/123
f 122/139/123 79/139/79 123/138/122
f 123/138/122 79/139/79 124/136/121
f 124/136/121 79/139/79 57/137/59
