# Blender 3.5.1
# www.blender.org
mtllib Rocket.mtl
o Rocket.001
v 0.003938 0.000000 0.005250
v 0.002625 0.000000 -0.000000
v 0.002625 0.000000 0.006125
v 0.003938 0.000000 -0.000000
v 0.001969 -0.000000 -0.000000
v 0.001969 -0.000000 0.007000
v -0.001969 -0.000000 0.000000
v 0.000000 -0.001969 -0.000000
v 0.000000 0.000000 0.000000
v 0.000000 -0.001969 -0.000000
v 0.001969 0.000000 0.000000
v 0.000000 0.000000 0.000000
v 0.001969 0.000000 0.000000
v 0.000000 0.001969 -0.000000
v 0.000000 0.000000 0.000000
v 0.000000 0.001969 -0.000000
v -0.001969 -0.000000 0.000000
v 0.000000 0.000000 0.000000
v 0.000000 -0.001969 0.017500
v -0.001969 -0.000000 0.017500
v 0.000000 -0.000000 0.021000
v 0.001969 -0.000000 0.017500
v 0.000000 -0.001969 0.017500
v 0.000000 -0.000000 0.021000
v 0.000000 0.001969 0.017500
v 0.001969 -0.000000 0.017500
v 0.000000 -0.000000 0.021000
v -0.001969 -0.000000 0.017500
v 0.000000 0.001969 0.017500
v 0.000000 -0.000000 0.021000
v -0.000000 0.003938 0.005250
v -0.000000 0.002625 -0.000000
v -0.000000 0.003938 0.000000
v 0.000000 0.002625 0.006125
v 0.000000 -0.002625 -0.000000
v -0.000000 -0.003938 0.005250
v -0.000000 -0.003938 -0.000000
v 0.000000 -0.002625 0.006125
v -0.001969 -0.000000 0.007000
v 0.000000 -0.001969 -0.000000
v -0.001969 -0.000000 0.000000
v 0.000000 -0.001969 0.007000
v -0.001969 -0.000000 0.008750
v 0.000000 -0.001969 0.008750
v 0.000000 -0.001969 -0.000000
v 0.001969 -0.000000 0.007000
v 0.001969 0.000000 0.000000
v 0.000000 -0.001969 0.007000
v 0.000000 -0.001969 0.008750
v 0.001969 -0.000000 0.008750
v 0.001969 -0.000000 0.007000
v 0.000000 0.001969 -0.000000
v 0.001969 0.000000 0.000000
v 0.000000 0.001969 0.007000
v 0.000000 0.001969 0.008750
v 0.001969 -0.000000 0.008750
v 0.000000 0.001969 -0.000000
v -0.001969 -0.000000 0.007000
v -0.001969 -0.000000 0.000000
v 0.000000 0.001969 0.007000
v -0.001969 -0.000000 0.008750
v 0.000000 0.001969 0.008750
v -0.001969 -0.000000 0.015750
v 0.000000 -0.001969 0.010500
v -0.001969 -0.000000 0.010500
v 0.000000 -0.001969 0.015750
v 0.000000 -0.001969 0.015750
v 0.001969 -0.000000 0.010500
v 0.000000 -0.001969 0.010500
v 0.001969 -0.000000 0.015750
v 0.000000 0.001969 0.015750
v 0.001969 -0.000000 0.010500
v 0.001969 -0.000000 0.015750
v 0.000000 0.001969 0.010500
v -0.001969 -0.000000 0.015750
v 0.000000 0.001969 0.010500
v 0.000000 0.001969 0.015750
v -0.001969 -0.000000 0.010500
v 0.000000 0.001969 -0.000000
v 0.000000 0.001969 0.007000
v 0.000000 -0.001969 -0.000000
v 0.000000 -0.001969 0.007000
v -0.001969 -0.000000 0.017500
v 0.000000 -0.001969 0.017500
v 0.000000 -0.001969 0.017500
v 0.001969 -0.000000 0.017500
v 0.000000 0.001969 0.017500
v 0.001969 -0.000000 0.017500
v 0.000000 0.001969 0.017500
v -0.001969 -0.000000 0.017500
v -0.003938 0.000000 -0.000000
v -0.002625 -0.000000 0.006125
v -0.002625 -0.000000 -0.000000
v -0.003938 0.000000 0.005250
v -0.001969 -0.000000 -0.000000
v -0.001969 -0.000000 0.007000
vn 0.0001 -1.0000 -0.0000
vn -0.0000 -0.0000 -1.0000
vn -0.6570 -0.6570 0.3696
vn 0.6570 -0.6570 0.3696
vn 0.6570 0.6570 0.3696
vn -0.6570 0.6570 0.3696
vn -1.0000 -0.0001 -0.0000
vn -1.0000 -0.0003 -0.0000
vn -1.0000 0.0001 -0.0000
vn -0.7071 -0.7071 -0.0000
vn 0.7071 -0.7071 -0.0000
vn 0.7071 0.7071 -0.0000
vn -0.7071 0.7071 -0.0000
vn -0.0001 -1.0000 -0.0000
vt 0.150012 0.900000
vt 0.050000 0.600000
vt 0.050000 0.950000
vt 0.150012 0.600000
vt 0.000000 0.600000
vt 0.000000 1.000000
vt 0.000000 0.850000
vt 0.150012 1.000000
vt 0.150000 0.850000
vt 0.000000 1.000000
vt 0.150000 0.850000
vt 0.000000 0.850000
vt 0.150000 1.000000
vt 0.000000 0.850000
vt 0.000000 1.000000
vt 0.150000 0.850000
vt 0.000000 1.000000
vt 0.150000 1.000000
vt 0.212132 0.773615
vt 0.000000 0.773615
vt 0.106066 1.000000
vt 0.212132 0.773615
vt 0.000000 0.773615
vt 0.106066 1.000000
vt 0.212132 0.773615
vt 0.000000 0.773615
vt 0.106066 1.000000
vt 0.212132 0.773615
vt 0.000000 0.773615
vt 0.106066 1.000000
vt 0.000000 0.900000
vt 0.100012 0.600000
vt 0.000000 0.600000
vt 0.100012 0.950000
vt 0.050000 0.600000
vt 0.150012 0.900000
vt 0.150012 0.600000
vt 0.050000 0.950000
vt 0.000000 0.400000
vt 0.212132 0.000000
vt 0.000000 0.000000
vt 0.212132 0.400000
vt 0.000000 0.500000
vt 0.212132 0.500000
vt 0.000000 0.000000
vt 0.212132 0.400000
vt 0.212132 0.000000
vt 0.000000 0.400000
vt 0.000000 0.500000
vt 0.000000 0.740234
vt 0.212132 0.500000
vt 0.212132 0.740234
vt 0.000000 0.400000
vt 0.212132 0.000000
vt 0.000000 0.000000
vt 0.212132 0.400000
vt 0.212132 0.500000
vt 0.212132 0.740234
vt 0.000000 0.500000
vt 0.000000 0.740234
vt 0.000000 0.000000
vt 0.212132 0.400000
vt 0.212132 0.000000
vt 0.000000 0.400000
vt 0.212132 0.500000
vt 0.212132 0.740234
vt 0.000000 0.500000
vt 0.000000 0.740234
vt 0.000000 0.900000
vt 0.212132 0.600000
vt 0.000000 0.600000
vt 0.212132 0.900000
vt 0.000000 0.900000
vt 0.212132 0.600000
vt 0.212132 0.840234
vt 0.000000 0.600000
vt 0.000000 0.840234
vt 0.212132 0.900000
vt 0.212132 0.900000
vt 0.000000 0.600000
vt 0.000000 0.840234
vt 0.000000 0.900000
vt 0.212132 0.600000
vt 0.212132 0.840234
vt 0.212132 0.900000
vt 0.000000 0.600000
vt 0.000000 0.840234
vt 0.000000 0.900000
vt 0.212132 0.600000
vt 0.212132 0.840234
vt 0.150012 0.600000
vt 0.150012 1.000000
vt 0.000000 0.600000
vt 0.000000 1.000000
vt 0.000000 1.000000
vt 0.212132 1.000000
vt 0.000000 1.000000
vt 0.212132 1.000000
vt 0.212132 1.000000
vt 0.000000 1.000000
vt 0.000000 1.000000
vt 0.212132 1.000000
vt 0.000000 0.600000
vt 0.100012 0.950000
vt 0.100012 0.600000
vt 0.000000 0.900000
vt 0.150012 0.600000
vt 0.150012 1.000000
s 1
usemtl Projectile
f 6/6/1 5/5/1 3/3/1
f 2/2/1 3/3/1 5/5/1
f 32/32/7 79/91/7 34/34/7
f 80/92/7 34/34/7 79/91/7
f 35/35/9 38/38/9 81/93/9
f 82/94/9 81/93/9 38/38/9
f 44/44/10 65/71/10 43/43/10
f 44/44/10 64/70/10 65/71/10
f 68/75/11 69/77/11 50/52/11
f 69/77/11 49/50/11 50/52/11
f 74/84/12 56/60/12 55/58/12
f 72/81/12 56/60/12 74/84/12
f 78/90/13 76/87/13 62/68/13
f 62/68/13 61/66/13 78/90/13
f 66/72/10 83/95/10 63/69/10
f 66/72/10 84/96/10 83/95/10
f 86/98/11 85/97/11 70/78/11
f 85/97/11 67/73/11 70/78/11
f 87/99/12 73/82/12 71/79/12
f 88/100/12 73/82/12 87/99/12
f 90/102/13 89/101/13 77/88/13
f 77/88/13 75/85/13 90/102/13
f 93/105/14 95/107/14 92/104/14
f 96/108/14 92/104/14 95/107/14
usemtl AltarUnlitRed
f 3/3/1 2/2/1 1/1/1
f 4/4/1 1/1/1 2/2/1
f 9/9/2 8/8/2 7/7/2
f 12/12/2 11/11/2 10/10/2
f 15/15/2 14/14/2 13/13/2
f 18/18/2 17/17/2 16/16/2
f 21/21/3 20/20/3 19/19/3
f 24/24/4 23/23/4 22/22/4
f 27/27/5 26/26/5 25/25/5
f 30/30/6 29/29/6 28/28/6
f 33/33/7 32/32/7 31/31/7
f 34/34/7 31/31/7 32/32/7
f 37/37/8 36/36/9 35/35/9
f 38/38/9 35/35/9 36/36/9
f 41/41/10 40/40/10 39/39/10
f 42/42/10 39/39/10 40/40/10
f 39/39/10 42/42/10 43/43/10
f 44/44/10 43/43/10 42/42/10
f 47/47/11 46/46/11 45/45/11
f 48/48/11 45/45/11 46/46/11
f 48/48/11 46/46/11 49/49/11
f 50/51/11 49/49/11 46/46/11
f 53/55/12 52/54/12 51/53/12
f 54/56/12 51/53/12 52/54/12
f 54/56/12 55/57/12 51/53/12
f 56/59/12 51/53/12 55/57/12
f 59/63/13 58/62/13 57/61/13
f 60/64/13 57/61/13 58/62/13
f 58/62/13 61/65/13 60/64/13
f 62/67/13 60/64/13 61/65/13
f 65/71/10 64/70/10 63/69/10
f 66/72/10 63/69/10 64/70/10
f 69/76/11 68/74/11 67/73/11
f 70/78/11 67/73/11 68/74/11
f 73/82/12 72/80/12 71/79/12
f 74/83/12 71/79/12 72/80/12
f 77/88/13 76/86/13 75/85/13
f 78/89/13 75/85/13 76/86/13
f 93/105/14 92/104/14 91/103/14
f 94/106/14 91/103/14 92/104/14
