# Blender 3.5.1
# www.blender.org
mtllib Wither_Projectile_3.mtl
o SkullProjectile
v -10.360000 -10.360000 10.360000
v -10.360000 10.360000 10.360000
v -10.360000 -10.360000 -10.360000
v -10.360000 10.360000 -10.360000
v 10.360000 -10.360000 10.360000
v 10.360000 10.360000 10.360000
v 10.360000 -10.360000 -10.360000
v 10.360000 10.360000 -10.360000
vn -1.0000 -0.0000 -0.0000
vn -0.0000 -0.0000 -1.0000
vn 1.0000 -0.0000 -0.0000
vn -0.0000 -0.0000 1.0000
vn -0.0000 -1.0000 -0.0000
vn -0.0000 1.0000 -0.0000
vt 0.125480 0.202405
vt 0.125000 0.202405
vt 0.250240 0.452885
vt 0.125480 0.327645
vt 0.125000 0.327645
vt 0.125000 0.453125
vt 0.000240 0.202405
vt 0.500720 0.202405
vt 0.250240 0.327645
vt 0.000240 0.327645
vt 0.500720 0.327645
vt 0.250000 0.453125
vt 0.250000 0.202645
vt 0.250240 0.202405
vt 0.375480 0.452885
vt 0.250000 0.327885
vt 0.250240 0.327645
vt 0.125000 0.328125
vt 0.375480 0.202405
vt 0.375240 0.202645
vt 0.375480 0.327645
vt 0.375480 0.327645
vt 0.375240 0.327885
vt 0.250000 0.328125
s 0
usemtl SkullProjectile
f 1/1/1 2/4/1 4/10/1 3/7/1
f 3/8/2 4/11/2 8/22/2 7/19/2
f 7/20/3 8/23/3 6/16/3 5/13/3
f 5/14/4 6/17/4 2/5/4 1/2/4
f 3/9/5 7/21/5 5/15/5 1/3/5
f 8/24/6 4/12/6 2/6/6 6/18/6
